<svg width="25" height="25" viewBox="0 0 25 25" fill="none" xmlns="http://www.w3.org/2000/svg">
<path d="M23.5937 14.7357C23.5937 15.1875 23.4107 15.5962 23.1149 15.892C22.8187 16.1878 22.41 16.3707 21.9587 16.3707H3.04126C2.13862 16.3707 1.40625 15.6389 1.40625 14.7357C1.40625 14.4938 1.45859 14.2646 1.55264 14.0582C1.63447 13.8788 1.74731 13.7172 1.88501 13.5795C2.1813 13.2837 2.58994 13.1007 3.04126 13.1007H21.9587C22.62 13.1007 23.1897 13.493 23.4474 14.0582C23.5414 14.2646 23.5937 14.4938 23.5937 14.7357Z" fill="#884D00"/>
<path d="M23.4474 14.0582C23.3656 14.2371 23.2522 14.3993 23.115 14.5365C22.8187 14.8323 22.4101 15.0153 21.9588 15.0153H3.0413C2.3806 15.0153 1.81088 14.6229 1.55267 14.0583C1.63451 13.8789 1.7473 13.7173 1.88505 13.5795C2.18134 13.2837 2.58998 13.1008 3.0413 13.1008H21.9588C22.62 13.1007 23.1897 13.4931 23.4474 14.0582Z" fill="#AA6100"/>
<path d="M25 17.6906C25 19.7972 24.0247 21.3626 22.4481 22.4009C20.8711 23.4397 18.6928 23.9515 16.2868 23.9515H8.71313C3.90122 23.9515 0 21.9039 0 17.6906C0 17.4558 0.0584473 17.2332 0.16416 17.0329C0.253613 16.8622 0.3771 16.7082 0.527051 16.577C0.852344 16.2919 1.30264 16.1155 1.79917 16.1155H23.2009C23.9261 16.1155 24.5513 16.4916 24.8359 17.0329C24.9416 17.2332 25 17.4558 25 17.6906Z" fill="#FFA733"/>
<path d="M24.8359 17.0329C24.4964 18.4357 23.6456 19.5283 22.4482 20.3171C20.8711 21.3559 18.6928 21.8677 16.2868 21.8677H8.71316C4.47957 21.8677 0.95144 20.2831 0.164185 17.0329C0.253638 16.8622 0.377124 16.7082 0.527075 16.577C0.852368 16.2919 1.30266 16.1155 1.79919 16.1155H23.2009C23.9261 16.1155 24.5512 16.4917 24.8359 17.0329Z" fill="#FFB655"/>
<path d="M19.4525 12.4146L15.2229 16.6442C15.1167 16.7499 15.0033 16.8434 14.8834 16.9242C13.9879 17.5305 12.7611 17.4375 11.9677 16.6442L7.73816 12.4146H19.4525Z" fill="#EEBF00"/>
<path d="M19.4525 12.4146L15.2229 16.6441C15.1167 16.7499 15.0034 16.8434 14.8834 16.9242C14.5607 16.8144 14.2578 16.6309 14.0006 16.3732L10.042 12.4146H19.4525Z" fill="#FFD422"/>
<path d="M24.5253 13.0047C24.5253 13.2263 24.4887 13.453 24.4094 13.674C24.0989 14.5406 23.2674 14.877 22.6194 14.3983L21.8423 13.8245C21.3001 13.4235 20.6084 13.5877 20.216 14.2108L20.1829 14.2631C19.8063 14.8618 19.1497 15.0397 18.6135 14.689L16.8733 13.551C16.4718 13.2888 15.9905 13.3173 15.6104 13.6268L14.2158 14.7612C13.8153 15.0869 13.305 15.1007 12.8939 14.7962L11.3031 13.6171C10.8965 13.3157 10.3923 13.3254 9.99337 13.6425L8.54494 14.7927C8.15612 15.1012 7.6672 15.119 7.2652 14.84L5.38981 13.5368C5.02081 13.2807 4.57614 13.2736 4.20206 13.518L2.45275 14.6621C1.28785 14.812 0.721204 13.9567 0.721204 13.9567C0.4422 13.4718 0.414222 12.897 0.565198 12.4147C0.744593 11.8384 1.17916 11.3942 1.7443 11.3942H23.2563C23.8103 11.3942 24.2529 11.8318 24.4349 12.4121C24.4938 12.5981 24.5253 12.7989 24.5253 13.0047Z" fill="#6DC82A"/>
<path d="M24.4349 12.4121C24.4272 12.4375 24.4186 12.4624 24.4095 12.4878C24.0989 13.3549 23.2675 13.6914 22.6195 13.2126L21.8424 12.6383C21.3001 12.2378 20.6084 12.402 20.216 13.0246L20.183 13.0774C19.8063 13.6761 19.1497 13.854 18.6135 13.5033L16.8733 12.3653C16.4718 12.1026 15.9905 12.1315 15.6104 12.4411L14.2158 13.5754C13.8153 13.9012 13.3051 13.9145 12.8939 13.61L11.3031 12.4309C10.8965 12.1295 10.3924 12.1397 9.99341 12.4563L8.54492 13.6069C8.1561 13.9149 7.66719 13.9332 7.26519 13.6542L5.3898 12.3511C5.0208 12.0944 4.57612 12.0873 4.20205 12.3323L2.45273 13.4758C1.28784 13.6262 0.721191 12.7704 0.721191 12.7704C0.655615 12.656 0.603809 12.5366 0.565186 12.4146C0.74458 11.8383 1.17915 11.394 1.74429 11.394H23.2563C23.8102 11.3941 24.2529 11.8317 24.4349 12.4121Z" fill="#7ED63E"/>
<path d="M24.0913 10.3481C24.0949 10.5174 24.0725 10.6805 24.0288 10.8345C23.8321 11.5196 23.2009 12.0208 22.4528 12.0208C19.5152 12.0208 11.6909 11.9547 10.5108 11.9938C10.4844 11.9948 10.458 11.9959 10.4321 11.9963C8.94192 12.0527 8.60242 12.2916 8.60242 13.086V15.9926C8.60242 16.142 8.54192 16.2777 8.44387 16.3758C8.34578 16.4739 8.21057 16.5343 8.06116 16.5343C7.76179 16.5343 7.51936 16.7768 7.51936 17.0761V18.3421C7.51936 18.4707 7.50413 18.5953 7.47464 18.7152C7.30745 19.4074 6.68279 19.9212 5.93264 19.9212H5.89251C5.03968 19.9212 4.34949 19.2285 4.35203 18.3757L4.35916 16.0841C4.35965 15.9083 4.43133 15.7486 4.54671 15.6338C4.66258 15.5184 4.82166 15.4473 4.99802 15.4473C5.35076 15.4473 5.63689 15.1611 5.63689 14.8084V13.086C5.63689 12.4975 5.16018 12.0208 4.57166 12.0208H2.5783C1.68128 12.0208 0.926541 11.3128 0.90823 10.4158C0.88992 9.49536 1.63094 8.74316 2.54729 8.74316H22.4202C23.3178 8.74316 24.0735 9.45112 24.0913 10.3481Z" fill="#FF3501"/>
<path d="M24.0913 10.3481C24.0948 10.5174 24.0725 10.6805 24.0288 10.8345C20.9189 10.8315 13.488 10.77 12.3404 10.8076C10.7832 10.8589 10.432 11.0922 10.432 11.9003V11.9963C8.94191 12.0527 8.60241 12.2916 8.60241 13.086V15.9926C8.60241 16.142 8.54191 16.2777 8.44386 16.3758C8.34577 16.4739 8.21056 16.5343 8.06115 16.5343C7.76178 16.5343 7.51935 16.7768 7.51935 17.0761V18.3421C7.51935 18.4707 7.50412 18.5953 7.47462 18.7152C6.73971 18.5968 6.17912 17.9579 6.18166 17.1895L6.18878 14.8983C6.18927 14.722 6.26095 14.5629 6.37633 14.448C6.4922 14.3327 6.65128 14.2615 6.82765 14.2615C7.18039 14.2615 7.46652 13.9754 7.46652 13.6227V11.9002C7.46652 11.3117 6.98981 10.835 6.40128 10.835H4.40793C3.5109 10.835 2.75617 10.1271 2.73786 9.23003C2.73429 9.06079 2.75666 8.89766 2.80089 8.74316H22.4202C23.3177 8.74316 24.0735 9.45112 24.0913 10.3481Z" fill="#FF5023"/>
<path d="M14.7154 7.07715L11.0891 10.7049C10.7257 11.0683 10.2973 11.327 9.84088 11.48C8.71564 11.8602 7.42272 11.6015 6.52721 10.7049L2.89948 7.07715H14.7154Z" fill="#EEBF00"/>
<path d="M14.7154 7.07715L11.0891 10.7049C10.7257 11.0683 10.2973 11.327 9.84088 11.48C9.38497 11.327 8.95656 11.0683 8.59366 10.7049L4.96588 7.07715H14.7154Z" fill="#FFD422"/>
<path d="M25 7.58745C25 7.61441 24.999 7.64082 24.9975 7.66724C24.9776 8.00825 24.8313 8.31573 24.6046 8.54243C24.3601 8.78692 24.0227 8.93784 23.6496 8.93784H1.35039C0.604785 8.9378 0 8.33301 0 7.58745C0 5.96924 0.750146 4.75098 1.88301 3.83462C2.80239 3.09058 3.97437 2.54522 5.20127 2.14527C8.63389 1.02769 12.5 1.04849 12.5 1.04849C12.5 1.04849 25 0.980911 25 7.58745Z" fill="#FFA733"/>
<path d="M25 7.58745C25 7.61441 24.999 7.64082 24.9975 7.66724H4.09484C3.34928 7.66724 2.74445 7.06245 2.74445 6.31685C2.74445 4.69864 3.49459 3.48037 4.62745 2.56407C4.80939 2.41665 5.00099 2.27744 5.20123 2.14527C8.6339 1.02769 12.5 1.04849 12.5 1.04849C12.5 1.04849 25 0.980911 25 7.58745Z" fill="#FFB655"/>
<path d="M19.2188 3.41085C19.4355 3.64025 19.4252 4.00192 19.1959 4.21871C18.9665 4.43546 18.6048 4.42521 18.3881 4.19586C18.1713 3.96652 17.7724 3.17174 18.0018 2.95494C18.2312 2.73815 19.002 3.18141 19.2188 3.41085Z" fill="#FFF5CC"/>
<path d="M16.1897 6.23502C16.3029 6.52965 16.1558 6.86022 15.8611 6.97335C15.5665 7.08649 15.2359 6.93937 15.1228 6.64474C15.0097 6.35011 14.9432 5.46334 15.2378 5.3502C15.5324 5.23712 16.0766 5.94039 16.1897 6.23502Z" fill="#FFF5CC"/>
<path d="M13.0715 3.8847C13.0715 4.20033 12.8156 4.45614 12.5 4.45614C12.1844 4.45614 11.9286 4.20028 11.9286 3.8847C11.9286 3.56908 12.1844 2.71747 12.5 2.71747C12.8156 2.71742 13.0715 3.56908 13.0715 3.8847Z" fill="#FFF5CC"/>
<path d="M9.92945 6.59314C9.85054 6.89871 9.53882 7.08245 9.23325 7.00354C8.92769 6.92464 8.74395 6.61292 8.82285 6.30735C8.90176 6.00179 9.36245 5.24119 9.66807 5.3201C9.97364 5.399 10.0084 6.28763 9.92945 6.59314Z" fill="#FFF5CC"/>
<path d="M6.78563 4.10403C6.64803 4.38801 6.30628 4.50676 6.0222 4.36917C5.73821 4.23157 5.61946 3.88982 5.75706 3.60574C5.89466 3.32175 6.49617 2.66677 6.78026 2.80442C7.06429 2.94206 6.92323 3.82004 6.78563 4.10403Z" fill="#FFF5CC"/>
</svg>
