<svg width="25" height="25" viewBox="0 0 25 25" fill="none" xmlns="http://www.w3.org/2000/svg">
<g clip-path="url(#clip0)">
<path d="M16.3794 20.1768C16.1413 20.1768 15.9484 19.9838 15.9484 19.7457C15.9488 19.6963 15.9572 19.6472 15.9734 19.6005L15.9764 19.5918C16.3915 18.3923 17.5001 16.3793 20.2458 16.3793C23.1953 16.3793 23.8057 13.5345 23.8979 12.9655C23.9367 12.7437 23.8749 12.5162 23.7294 12.3444C23.5828 12.1695 23.3662 12.0687 23.138 12.069H19.8665C19.6284 12.069 19.4354 11.876 19.4354 11.6379C19.4354 11.3999 19.6284 11.2069 19.8665 11.2069H23.138C23.6181 11.2064 24.074 11.4174 24.3843 11.7837C24.6946 12.1499 24.8278 12.6343 24.7484 13.1078C24.6803 13.5272 23.9725 17.2414 20.2458 17.2414C18.1441 17.2414 17.2074 18.6716 16.7915 19.8707C16.7364 20.0523 16.5691 20.1766 16.3794 20.1768V20.1768Z" fill="#95A5A5"/>
<path d="M7.90082 17.569L5.5603 14.1811C4.7702 12.9881 4.33659 11.5946 4.3103 10.1639V9.91389L12.0689 9.05182L20.6896 9.91389V10.1639C20.6765 11.6768 20.1745 13.145 19.2586 14.3492C18.431 15.4484 17.4569 17.3018 16.9439 20.2587L13.362 21.5518L7.90082 17.569Z" fill="#E64C3C"/>
<path d="M21.9828 21.0992V21.1466C21.9834 21.4027 21.8677 21.6453 21.6682 21.8061L20.0604 23.0905C19.9113 23.2103 19.7258 23.2757 19.5345 23.2759H11.8147C11.9354 23.1724 12.0518 23.0647 12.1681 22.9483C12.9255 22.217 13.4567 21.2834 13.6983 20.2586H21.1423C21.3654 20.2582 21.5794 20.3466 21.7371 20.5043C21.8949 20.662 21.9833 20.8761 21.9828 21.0992V21.0992Z" fill="#C03A2B"/>
<path d="M13.6981 20.2587C13.4565 21.2834 12.9254 22.217 12.168 22.9483C12.0516 23.0647 11.9352 23.1725 11.8145 23.2759C10.0602 24.7759 7.74985 25.0087 6.49122 23.7587C6.46302 23.7321 6.43707 23.7033 6.41363 23.6725C6.40521 23.665 6.39795 23.6562 6.39208 23.6466C6.29473 23.5409 6.20675 23.427 6.12915 23.3061C7.19381 22.2975 7.99554 23.0647 9.06019 22.0044C10.1421 20.9268 9.33175 20.1164 10.4136 19.0388C11.474 17.9785 12.28 18.7457 13.3404 17.7371H13.3447C13.423 17.8627 13.4921 17.9938 13.5516 18.1294C13.8185 18.8071 13.8697 19.5507 13.6981 20.2587V20.2587Z" fill="#805333"/>
<path d="M13.3448 17.7371H13.3405C12.2802 18.7457 11.4741 17.9785 10.4138 19.0388C9.33191 20.1164 10.1423 20.9267 9.06036 22.0043C7.9957 23.0647 7.19398 22.2974 6.12932 23.306C6.05102 23.1789 5.98187 23.0464 5.92242 22.9095C5.3276 21.5086 5.83622 19.5517 7.30605 18.0948C7.49178 17.9072 7.69055 17.7329 7.90087 17.5733V17.569C9.6207 16.25 11.7759 16.0905 12.9828 17.2845C13.0192 17.3187 13.0524 17.3562 13.0819 17.3966C13.1783 17.5031 13.2662 17.6169 13.3448 17.7371V17.7371Z" fill="#A56A43"/>
<path d="M7.90079 17.569V17.5733C7.69047 17.7329 7.4917 17.9072 7.30596 18.0948C5.69389 19.694 5.23699 21.8966 6.12923 23.3061C6.21266 23.4366 6.30789 23.5593 6.41372 23.6724C6.03403 23.9742 5.60737 24.2115 5.15078 24.375C5.01084 24.4218 4.86838 24.4607 4.72406 24.4914C4.68095 22.7673 3.37061 22.7414 3.37061 20.9785C3.37061 19.1811 4.72406 19.1811 4.72406 17.3836C4.72406 15.6207 3.41371 15.5948 3.37061 13.8707C3.51139 13.8404 3.6539 13.8188 3.79733 13.8061C3.88039 13.7974 3.96383 13.7931 4.04733 13.7931C4.57603 13.7948 5.09598 13.9282 5.56027 14.1811C6.7855 14.9274 7.63625 16.1589 7.90079 17.569Z" fill="#CB8252"/>
<path d="M3.37046 20.9785C3.37046 22.7414 4.6808 22.7672 4.72391 24.4914C4.58307 24.5213 4.44057 24.5429 4.29718 24.556C1.94373 24.7414 -0.00454337 22.2629 -0.000233027 19.181C-0.00454337 16.7198 1.24546 14.6379 2.94373 14C3.08172 13.944 3.22456 13.9007 3.37046 13.8707C3.41356 15.5948 4.72391 15.6207 4.72391 17.3836C4.72391 19.181 3.37046 19.181 3.37046 20.9785Z" fill="#CF976A"/>
<path d="M9.48279 6.03451C9.24474 6.03451 9.05176 5.84153 9.05176 5.60348C9.05976 5.16555 9.27059 4.75614 9.62245 4.49529C9.82977 4.3052 9.91382 4.22029 9.91382 4.02115C9.91382 3.82201 9.82762 3.73839 9.62245 3.54701C9.27108 3.2867 9.06029 2.87817 9.05176 2.44097C9.05974 2.00318 9.27079 1.59397 9.62288 1.33365C9.82977 1.14356 9.91382 1.05908 9.91382 0.862095C9.91382 0.624042 10.1068 0.431061 10.3449 0.431061C10.5829 0.431061 10.7759 0.624042 10.7759 0.862095C10.7677 1.29963 10.5569 1.70859 10.2052 1.96899C9.99788 2.15908 9.91382 2.24356 9.91382 2.44313C9.91382 2.6427 10 2.72589 10.2052 2.91727C10.5561 3.17739 10.7668 3.5853 10.7759 4.02201C10.7674 4.45958 10.5567 4.86853 10.2052 5.12934C10 5.32072 9.91382 5.40563 9.91382 5.60348C9.91382 5.84153 9.72084 6.03451 9.48279 6.03451V6.03451Z" fill="#805333"/>
<path d="M12.0692 6.03451C11.8312 6.03451 11.6382 5.84153 11.6382 5.60348C11.6462 5.16555 11.857 4.75614 12.2089 4.49529C12.4162 4.3052 12.5003 4.22029 12.5003 4.02115C12.5003 3.82201 12.4141 3.73839 12.2089 3.54701C11.8575 3.2867 11.6467 2.87817 11.6382 2.44097C11.6462 2.00318 11.8572 1.59397 12.2093 1.33365C12.4162 1.14356 12.5003 1.05908 12.5003 0.862095C12.5003 0.624042 12.6932 0.431061 12.9313 0.431061C13.1694 0.431061 13.3623 0.624042 13.3623 0.862095C13.3542 1.29963 13.1433 1.70859 12.7916 1.96899C12.5843 2.15908 12.5003 2.24356 12.5003 2.44313C12.5003 2.6427 12.5865 2.72589 12.7916 2.91727C13.1426 3.17739 13.3533 3.5853 13.3623 4.02201C13.3539 4.45958 13.1431 4.86853 12.7916 5.12934C12.5865 5.32072 12.5003 5.40563 12.5003 5.60348C12.5003 5.84153 12.3073 6.03451 12.0692 6.03451V6.03451Z" fill="#805333"/>
<path d="M14.6553 6.03451C14.4172 6.03451 14.2242 5.84153 14.2242 5.60348C14.2322 5.16555 14.4431 4.75614 14.7949 4.49529C15.0023 4.3052 15.0863 4.22029 15.0863 4.02115C15.0863 3.82201 15.0001 3.73839 14.7949 3.54701C14.4436 3.2867 14.2328 2.87817 14.2242 2.44097C14.2322 2.00318 14.4433 1.59397 14.7954 1.33365C15.0023 1.14356 15.0863 1.05908 15.0863 0.862095C15.0863 0.624042 15.2793 0.431061 15.5174 0.431061C15.7554 0.431061 15.9484 0.624042 15.9484 0.862095C15.9403 1.29963 15.7294 1.70859 15.3777 1.96899C15.1704 2.15908 15.0863 2.24356 15.0863 2.44313C15.0863 2.6427 15.1725 2.72589 15.3777 2.91727C15.7286 3.17739 15.9393 3.5853 15.9484 4.02201C15.9399 4.45958 15.7292 4.86853 15.3777 5.12934C15.1725 5.32072 15.0863 5.40563 15.0863 5.60348C15.0863 5.84153 14.8933 6.03451 14.6553 6.03451V6.03451Z" fill="#805333"/>
<path d="M4.38804 22.5086C4.84572 23.0268 5.11462 23.6846 5.15097 24.375C5.01103 24.4218 4.86856 24.4607 4.72424 24.4914C4.5834 24.5214 4.44091 24.543 4.29752 24.5561C4.29395 24.5391 4.2925 24.5217 4.29321 24.5043C4.28128 23.9564 4.07154 23.4313 3.70269 23.0259C2.68537 21.8472 2.68537 20.1011 3.70269 18.9224C4.08835 18.5035 4.29956 17.9531 4.29321 17.3836C4.30169 16.8172 4.09177 16.2693 3.707 15.8535C3.25254 15.3384 2.98391 14.6858 2.94407 14C3.08206 13.944 3.2249 13.9007 3.37079 13.8707C3.51158 13.8404 3.65409 13.8188 3.79752 13.8061C3.80109 13.8231 3.80254 13.8404 3.80183 13.8578C3.81376 14.4057 4.0235 14.9309 4.39235 15.3362C5.40967 16.5149 5.40967 18.261 4.39235 19.4397C4.00669 19.8587 3.79548 20.409 3.80183 20.9785C3.79335 21.5449 4.00327 22.0929 4.38804 22.5086V22.5086Z" fill="#805333"/>
<path d="M13.5518 18.1293C13.1077 18.5201 12.5471 18.7534 11.9569 18.7931C10.9913 18.8466 10.2196 19.6164 10.1639 20.5819C10.0586 21.9318 8.98393 23.0029 7.63369 23.1035C7.18185 23.1233 6.75274 23.3072 6.42679 23.6207C6.41386 23.6293 6.40524 23.638 6.39231 23.6466C6.29496 23.5409 6.20698 23.427 6.12938 23.3061C6.05108 23.179 5.98194 23.0464 5.92249 22.9095C6.36708 22.523 6.92533 22.2915 7.513 22.25C7.98194 22.2309 8.42592 22.0336 8.75437 21.6983C9.09216 21.373 9.29134 20.9298 9.31041 20.4612C9.4157 19.113 10.4879 18.0427 11.8363 17.9397C12.2874 17.9204 12.7162 17.7382 13.0432 17.4267C13.055 17.4154 13.068 17.4053 13.0819 17.3966C13.1783 17.5031 13.2662 17.6169 13.3449 17.7371C13.4232 17.8627 13.4923 17.9938 13.5518 18.1293V18.1293Z" fill="#603E26"/>
<path d="M20.6896 8.18964V9.91378H4.3103V8.18964C4.31172 7.71413 4.69685 7.329 5.17237 7.32758H19.8275C20.3031 7.329 20.6882 7.71413 20.6896 8.18964Z" fill="#F9EAB0"/>
</g>
<defs>
<clipPath id="clip0">
<rect width="25" height="25" fill="white"/>
</clipPath>
</defs>
</svg>
