<svg width="25" height="25" viewBox="0 0 25 25" fill="none" xmlns="http://www.w3.org/2000/svg">
<g clip-path="url(#clip0)">
<path d="M6.44479 0.799011C4.29679 0.799011 2.54932 2.54648 2.54932 4.69444C2.54932 6.8424 4.29679 8.58992 6.44479 8.58992C6.55651 8.58992 6.66945 8.58511 6.78057 8.5756L7.02077 8.55512L10.3403 4.93512V4.69449C10.3402 2.54648 8.59275 0.799011 6.44479 0.799011Z" fill="#FFDD33"/>
<path d="M6.44483 9.32581C3.89104 9.32581 1.81348 7.24819 1.81348 4.69446C1.81348 2.14072 3.89104 0.0631104 6.44483 0.0631104C8.99861 0.0631104 11.0762 2.14072 11.0762 4.69446H9.60561C9.60561 2.95159 8.18764 1.53368 6.44483 1.53368C4.70201 1.53368 3.28399 2.95159 3.28399 4.69446C3.28399 6.43732 4.70196 7.85524 6.44478 7.85524C6.53595 7.85524 6.62816 7.85132 6.71874 7.84358L6.84399 9.3088C6.71193 9.32012 6.57767 9.32581 6.44483 9.32581Z" fill="#FFBB33"/>
<path d="M5.93726 4.39795L7.68546 24.5612H17.7041L19.4523 4.39795H5.93726Z" fill="#CFF3FC"/>
<path d="M12.6947 4.39795V24.5612H17.704L19.4523 4.39795H12.6947Z" fill="#99EEFF"/>
<path d="M16.0035 9.42985L14.5476 9.22186L15.9313 0H23.1866V1.47057H17.2067L16.0035 9.42985Z" fill="#FF6A4D"/>
<path d="M17.5657 8.75672C17.5532 8.76319 16.2658 9.39793 14.3073 9.05534L11.8961 8.74343L11.8835 8.74191C8.8112 8.40746 7.38926 8.93622 7.33024 8.95892L6.88098 9.13151L8.15528 23.8287H17.246L18.5996 8.21643L17.5657 8.75672Z" fill="#A8E62E"/>
<path d="M17.5658 8.75677C17.5533 8.76324 16.2659 9.39798 14.3074 9.05539L12.6947 8.84676V23.8287H17.246L18.5996 8.21643L17.5658 8.75677Z" fill="#7ACC29"/>
<path d="M17.9221 25H7.46735L5.64307 3.95917H19.7464L17.9221 25ZM8.81596 23.5294H16.5735L18.1429 5.42973H7.24662L8.81596 23.5294Z" fill="#99EEFF"/>
<path d="M9.92859 8.31732L14.2534 6.47928L16.0914 10.8041L11.7666 12.6421L9.92859 8.31732Z" fill="#E6FBFF"/>
<path d="M9.55884 17.9954L12.0456 14.009L16.0319 16.4958L13.5452 20.4821L9.55884 17.9954Z" fill="#E6FBFF"/>
<path d="M15.7018 14.2909C16.0864 14.2909 16.4549 13.9527 16.4371 13.5556C16.4193 13.1572 16.114 12.8203 15.7018 12.8203C15.3172 12.8203 14.9488 13.1585 14.9666 13.5556C14.9844 13.954 15.2896 14.2909 15.7018 14.2909Z" fill="#3BB324"/>
<path d="M9.59332 13.499C9.97792 13.499 10.3464 13.1608 10.3286 12.7637C10.3108 12.3653 10.0055 12.0284 9.59332 12.0284C9.20872 12.0284 8.84025 12.3666 8.85804 12.7637C8.87588 13.1621 9.18112 13.499 9.59332 13.499Z" fill="#7ACC29"/>
<path d="M11.0827 22.4543C11.4673 22.4543 11.8358 22.1161 11.818 21.719C11.8001 21.3207 11.4949 20.9838 11.0827 20.9838C10.6981 20.9838 10.3296 21.3219 10.3474 21.719C10.3653 22.1174 10.6705 22.4543 11.0827 22.4543Z" fill="#7ACC29"/>
<path d="M12.6947 3.95917V5.42973H18.1428L16.5735 23.5294H12.6947V25H17.9221L19.7464 3.95917H12.6947Z" fill="#66E6FF"/>
<path d="M12.6947 12.2559L16.0967 10.8112L14.2593 6.48431L12.6947 7.14872V12.2559Z" fill="#CFF3FC"/>
<path d="M12.6947 14.4067V19.9477L13.5566 20.4856L16.0453 16.4975L12.6947 14.4067Z" fill="#CFF3FC"/>
</g>
<defs>
<clipPath id="clip0">
<rect width="25" height="25" fill="white"/>
</clipPath>
</defs>
</svg>
