<svg width="25" height="25" viewBox="0 0 25 25" fill="none" xmlns="http://www.w3.org/2000/svg">
<path d="M10.9806 3.61938C10.9806 3.61938 3.38576 8.97766 0.577722 23.5395C0.368751 24.6231 1.44301 25.4234 2.21228 24.7562C5.57894 21.836 12.736 16.621 22.6391 14.7463C23.7679 14.5326 24.3377 13.0639 23.7237 11.9509C22.2278 9.23939 18.7251 5.06528 10.9806 3.61938Z" fill="url(#paint0_linear)"/>
<path d="M23.7053 11.9178C12.824 13.4429 4.9681 19.1351 1.39119 22.2376C1.20286 22.4009 0.99629 22.476 0.794722 22.4811C0.719771 22.8294 0.646732 23.1817 0.577418 23.5412C0.368644 24.6242 1.44354 25.423 2.21237 24.7562C5.57962 21.8355 12.7386 16.6191 22.6444 14.7453C23.7666 14.533 24.3388 13.0682 23.7293 11.9611C23.7214 11.9467 23.7134 11.9323 23.7053 11.9178Z" fill="url(#paint1_linear)"/>
<path d="M24.1231 12.9973C24.1231 12.9973 22.145 4.80893 10.3085 2.91656C10.3085 2.91656 2.74855 8.20039 0.0249245 22.2195C-0.17782 23.2632 0.900267 24.0083 1.66566 23.3533C1.95786 23.1033 2.27879 22.836 2.62786 22.555C3.06482 22.2031 3.66477 22.5643 3.66477 23.1788V23.2225C3.66477 23.8723 4.12149 24.399 4.68492 24.399C5.24835 24.399 5.70506 23.8723 5.70506 23.2225V21.9901C5.70506 20.92 6.21148 19.9353 7.02629 19.4232C9.0204 18.1696 11.3823 16.8921 14.0755 15.7838C14.5048 15.6071 14.9568 15.9747 14.9568 16.5004C14.9568 17.1502 15.4135 17.6769 15.9769 17.6769C16.5403 17.6769 16.9971 17.1502 16.9971 16.5004V14.9863C16.9971 14.8159 17.0953 14.6664 17.2375 14.6203L17.2441 14.6181C17.4556 14.5495 17.6654 14.7328 17.6654 14.9861V18.8196C17.6654 19.4693 18.1221 19.996 18.6855 19.996C19.249 19.996 19.7057 19.4693 19.7057 18.8196V15.548C19.7057 14.5778 20.2999 13.7394 21.1258 13.5545C22.0973 13.3372 23.0968 13.1496 24.1231 12.9973Z" fill="url(#paint2_linear)"/>
<path d="M10.3086 2.91663C10.3086 2.91663 8.8651 3.92561 7.01245 6.23126L16.6672 17.3651C16.8696 17.1501 16.9972 16.8428 16.9972 16.5005V14.9863C16.9972 14.816 17.0954 14.6665 17.2376 14.6203L17.2443 14.6182C17.4557 14.5496 17.6655 14.7329 17.6655 14.9862V18.5164L18.9204 19.9635C19.3705 19.8411 19.7058 19.376 19.7058 18.8197V15.548C19.7058 14.5778 20.3 13.7394 21.126 13.5545C22.0974 13.3371 23.0968 13.1496 24.1231 12.9973C24.1232 12.9973 22.1451 4.80894 10.3086 2.91663Z" fill="url(#paint3_linear)"/>
<path d="M12.7756 5.66546C12.6755 5.53471 12.5594 5.41046 12.4267 5.29508C11.345 4.35444 9.59127 4.35444 8.5096 5.29508C7.48421 6.18677 7.43157 7.60333 8.35024 8.54969L16.2316 17.6384C16.6716 17.5078 16.9971 17.0485 16.9971 16.5004V14.9863C16.9971 14.8159 17.0953 14.6664 17.2375 14.6203L17.2442 14.6181C17.4556 14.5495 17.6654 14.7328 17.6654 14.9861V18.8196C17.6654 19.101 17.7514 19.3591 17.8942 19.5616C17.9638 19.6447 18.0405 19.7246 18.1238 19.8012C18.2849 19.9241 18.4779 19.9961 18.6855 19.9961C19.249 19.9961 19.7057 19.4694 19.7057 18.8197V15.548C19.7057 15.0284 19.8763 14.5467 20.1615 14.1828L12.7756 5.66546Z" fill="url(#paint4_linear)"/>
<path d="M8.95903 9.44596C8.58393 8.94585 7.90643 8.61188 7.13291 8.61188C5.95266 8.61188 4.99585 9.38927 4.99585 10.3483C4.99585 10.7576 5.1706 11.1336 5.46222 11.4304L10.6088 17.3841C11.6937 16.8278 12.85 16.2882 14.0756 15.7838C14.1882 15.7374 14.3022 15.7293 14.4093 15.7509L8.95903 9.44596Z" fill="url(#paint5_linear)"/>
<path d="M17.7218 10.8561C17.3419 10.3745 16.6779 10.055 15.9216 10.055C14.7414 10.055 13.7846 10.8324 13.7846 11.7914C13.7846 11.8306 13.7867 11.8693 13.7899 11.9078C12.8676 11.3453 11.587 11.4218 10.763 12.1384C9.8956 12.8928 9.84329 14.0874 10.6059 14.895L12.1212 16.6425C12.7516 16.3478 13.4032 16.0605 14.0755 15.7839C14.5048 15.6072 14.9568 15.9748 14.9568 16.5005C14.9568 17.1503 15.4135 17.677 15.9769 17.677C16.5403 17.677 16.9971 17.1503 16.9971 16.5005V14.9864C16.9971 14.816 17.0953 14.6665 17.2375 14.6204L17.2441 14.6182C17.4556 14.5496 17.6654 14.7329 17.6654 14.9862V18.8197C17.6654 19.4695 18.1221 19.9961 18.6855 19.9961C19.249 19.9961 19.7057 19.4695 19.7057 18.8197V15.548C19.7057 14.9002 19.9709 14.3114 20.3928 13.9364L17.7218 10.8561Z" fill="url(#paint6_linear)"/>
<path d="M10.4595 17.461L8.7062 15.4391C8.3264 14.9574 7.66233 14.6379 6.90596 14.6379C5.98012 14.6379 5.19199 15.1163 4.89517 15.7855C4.03027 15.4579 2.98621 15.6011 2.2788 16.2163C1.41131 16.9707 1.35905 18.1654 2.1217 18.973L5.70508 23.1053V21.9903C5.70508 20.9201 6.2115 19.9354 7.0263 19.4233C8.0711 18.7664 9.21791 18.1032 10.4595 17.461Z" fill="url(#paint7_linear)"/>
<path d="M4.79303 12.549C4.84004 12.4468 4.80631 12.32 4.71773 12.2658C4.62911 12.2116 4.51915 12.2505 4.47215 12.3526C4.42514 12.4548 4.45886 12.5816 4.54744 12.6358C4.63602 12.6901 4.74597 12.6512 4.79303 12.549Z" fill="#FFEAA2"/>
<path d="M4.1967 12.6334C4.12675 12.5907 4.03994 12.6214 4.00283 12.702C3.96572 12.7827 3.99234 12.8828 4.06229 12.9256C4.13224 12.9684 4.21906 12.9377 4.25617 12.857C4.29327 12.7763 4.26666 12.6762 4.1967 12.6334Z" fill="#FFEAA2"/>
<path d="M4.35425 13.4956C4.31209 13.4698 4.25974 13.4883 4.23738 13.5369C4.21503 13.5855 4.23106 13.6459 4.27322 13.6717C4.31537 13.6975 4.36773 13.679 4.39008 13.6303C4.41248 13.5817 4.39645 13.5214 4.35425 13.4956Z" fill="#FFEAA2"/>
<path d="M5.59397 13.771C5.49367 13.7677 5.4101 13.8588 5.4073 13.9744C5.40446 14.0901 5.48348 14.1864 5.58372 14.1897C5.68402 14.1929 5.76759 14.1018 5.77039 13.9862C5.77323 13.8706 5.69426 13.7742 5.59397 13.771Z" fill="#FFEAA2"/>
<path d="M6.53901 12.2893C6.45985 12.2867 6.39387 12.3586 6.39166 12.4499C6.38941 12.5411 6.45181 12.6172 6.53092 12.6198C6.61009 12.6224 6.67607 12.5505 6.67833 12.4592C6.68053 12.3679 6.61818 12.2918 6.53901 12.2893Z" fill="#FFEAA2"/>
<path d="M5.20683 12.3521C5.15908 12.3506 5.11933 12.3939 5.11795 12.4489C5.11663 12.504 5.15423 12.5498 5.20192 12.5514C5.24967 12.5529 5.28942 12.5096 5.2908 12.4546C5.29217 12.3995 5.25457 12.3537 5.20683 12.3521Z" fill="#FFEAA2"/>
<path d="M4.92158 13.2109C4.84933 13.2298 4.80408 13.3128 4.82051 13.3962C4.83698 13.4795 4.90889 13.5317 4.98119 13.5127C5.05345 13.4937 5.09869 13.4108 5.08227 13.3274C5.06575 13.2441 4.99384 13.1919 4.92158 13.2109Z" fill="#FFEAA2"/>
<path d="M5.07185 12.7788C5.01479 12.7938 4.97906 12.8593 4.99205 12.9251C5.00504 12.9909 5.06185 13.0321 5.11891 13.0171C5.17597 13.0021 5.2117 12.9366 5.19871 12.8708C5.18567 12.805 5.12891 12.7638 5.07185 12.7788Z" fill="#FFEAA2"/>
<path d="M4.64107 13.0178C4.67548 13.0088 4.697 12.9693 4.68916 12.9296C4.68132 12.8899 4.6471 12.8651 4.61269 12.8742C4.57828 12.8832 4.55676 12.9227 4.5646 12.9624C4.57244 13.002 4.60666 13.0269 4.64107 13.0178Z" fill="#FFEAA2"/>
<path d="M8.16046 11.9303C8.20747 11.8281 8.17374 11.7013 8.08517 11.6471C7.99654 11.5929 7.88659 11.6318 7.83958 11.7339C7.79257 11.8361 7.82629 11.9629 7.91487 12.0171C8.0035 12.0713 8.11345 12.0324 8.16046 11.9303Z" fill="#FFEAA2"/>
<path d="M7.28118 13.7317C7.21123 13.6889 7.12441 13.7196 7.0873 13.8002C7.0502 13.8809 7.07682 13.981 7.14677 14.0238C7.21672 14.0666 7.30353 14.0359 7.34064 13.9552C7.37775 13.8746 7.35113 13.7744 7.28118 13.7317Z" fill="#FFEAA2"/>
<path d="M7.0542 12.8219C7.01204 12.7961 6.95969 12.8146 6.93734 12.8632C6.91498 12.9118 6.93101 12.9722 6.97317 12.998C7.01533 13.0238 7.06768 13.0053 7.09003 12.9567C7.11238 12.9081 7.09635 12.8477 7.0542 12.8219Z" fill="#FFEAA2"/>
<path d="M9.14963 12.2129C9.04934 12.2096 8.96576 12.3008 8.96297 12.4164C8.96012 12.532 9.03914 12.6284 9.13939 12.6316C9.23968 12.6349 9.32326 12.5438 9.32605 12.4282C9.3289 12.3126 9.24993 12.2162 9.14963 12.2129Z" fill="#FFEAA2"/>
<path d="M9.1295 11.9333C9.13175 11.842 9.06935 11.7659 8.99019 11.7634C8.91102 11.7608 8.84504 11.8327 8.84283 11.924C8.84058 12.0153 8.90298 12.0914 8.9821 12.094C9.06126 12.0965 9.12724 12.0246 9.1295 11.9333Z" fill="#FFEAA2"/>
<path d="M8.57426 11.7333C8.52651 11.7318 8.48676 11.7751 8.48539 11.8301C8.48406 11.8852 8.52166 11.9311 8.56936 11.9326C8.6171 11.9342 8.65686 11.8908 8.65823 11.8358C8.65955 11.7807 8.62195 11.7349 8.57426 11.7333Z" fill="#FFEAA2"/>
<path d="M7.79097 13.1802C7.71871 13.1992 7.67347 13.2822 7.68989 13.3655C7.70636 13.4489 7.77827 13.501 7.85058 13.4821C7.92283 13.4631 7.96808 13.3802 7.95165 13.2968C7.93518 13.2134 7.86327 13.1612 7.79097 13.1802Z" fill="#FFEAA2"/>
<path d="M8.43916 12.16C8.3821 12.175 8.34637 12.2405 8.35936 12.3062C8.37235 12.372 8.42916 12.4132 8.48617 12.3983C8.54323 12.3833 8.57896 12.3178 8.56597 12.252C8.55303 12.1862 8.49622 12.145 8.43916 12.16Z" fill="#FFEAA2"/>
<path d="M8.0085 12.3991C8.04291 12.3901 8.06443 12.3506 8.05659 12.3109C8.04875 12.2712 8.01453 12.2464 7.98012 12.2555C7.94571 12.2645 7.92419 12.304 7.93203 12.3436C7.93983 12.3833 7.97409 12.4081 8.0085 12.3991Z" fill="#FFEAA2"/>
<path d="M10.0438 15.2908C10.0908 15.1886 10.057 15.0618 9.96847 15.0076C9.87984 14.9534 9.76989 14.9923 9.72288 15.0945C9.67587 15.1967 9.70959 15.3235 9.79817 15.3777C9.8868 15.4319 9.99675 15.393 10.0438 15.2908Z" fill="#FFEAA2"/>
<path d="M9.44732 15.3753C9.37736 15.3325 9.29055 15.3632 9.25344 15.4438C9.21633 15.5245 9.24295 15.6246 9.3129 15.6674C9.38285 15.7102 9.46967 15.6795 9.50678 15.5988C9.54393 15.5181 9.51727 15.4181 9.44732 15.3753Z" fill="#FFEAA2"/>
<path d="M9.60498 16.2374C9.56282 16.2116 9.51047 16.2301 9.48812 16.2787C9.46576 16.3273 9.48179 16.3877 9.52395 16.4135C9.56611 16.4393 9.61846 16.4208 9.64081 16.3722C9.66317 16.3236 9.64714 16.2632 9.60498 16.2374Z" fill="#FFEAA2"/>
<path d="M10.8446 16.5128C10.7443 16.5095 10.6607 16.6006 10.6579 16.7162C10.6551 16.8319 10.7341 16.9283 10.8343 16.9315C10.9346 16.9348 11.0182 16.8436 11.021 16.728C11.0238 16.6124 10.9448 16.516 10.8446 16.5128Z" fill="#FFEAA2"/>
<path d="M18.9664 11.7914C18.9325 11.7089 18.847 11.6737 18.7754 11.7127C18.7038 11.7518 18.6733 11.8504 18.7072 11.9329C18.7411 12.0155 18.8266 12.0507 18.8982 12.0116C18.9697 11.9726 19.0003 11.8739 18.9664 11.7914Z" fill="#FFEAA2"/>
<path d="M10.4574 15.0939C10.4097 15.0924 10.3699 15.1357 10.3686 15.1907C10.3672 15.2458 10.4048 15.2916 10.4525 15.2932C10.5003 15.2948 10.54 15.2514 10.5414 15.1964C10.5427 15.1413 10.5051 15.0955 10.4574 15.0939Z" fill="#FFEAA2"/>
<path d="M10.1722 15.9527C10.0999 15.9717 10.0547 16.0546 10.0711 16.138C10.0876 16.2213 10.1595 16.2735 10.2318 16.2545C10.3041 16.2355 10.3493 16.1526 10.3329 16.0692C10.3165 15.9859 10.2444 15.9337 10.1722 15.9527Z" fill="#FFEAA2"/>
<path d="M10.3225 15.5206C10.2654 15.5356 10.2297 15.6011 10.2427 15.6669C10.2556 15.7327 10.3125 15.7739 10.3695 15.7589C10.4265 15.7439 10.4623 15.6784 10.4493 15.6126C10.4363 15.5468 10.3795 15.5056 10.3225 15.5206Z" fill="#FFEAA2"/>
<path d="M9.89168 15.7596C9.92609 15.7506 9.94761 15.7111 9.93977 15.6715C9.93193 15.6318 9.89771 15.607 9.8633 15.616C9.82889 15.625 9.80737 15.6645 9.81521 15.7042C9.82305 15.7439 9.85732 15.7687 9.89168 15.7596Z" fill="#FFEAA2"/>
<path d="M10.0563 6.1532C10.1033 6.05099 10.0696 5.9242 9.98104 5.86999C9.89241 5.81578 9.78246 5.85467 9.73545 5.95682C9.68844 6.05902 9.72217 6.18582 9.81074 6.24003C9.89937 6.2943 10.0093 6.2554 10.0563 6.1532Z" fill="#FFEAA2"/>
<path d="M18.1879 13.2081C18.1892 13.1168 18.1261 13.0415 18.047 13.0399C17.9678 13.0384 17.9025 13.1111 17.9011 13.2024C17.8998 13.2937 17.9629 13.369 18.042 13.3706C18.1212 13.3722 18.1865 13.2995 18.1879 13.2081Z" fill="#FFEAA2"/>
<path d="M18.7883 12.5625C18.7891 12.5075 18.7511 12.4621 18.7033 12.4611C18.6556 12.4602 18.6162 12.504 18.6154 12.5591C18.6145 12.6142 18.6526 12.6596 18.7003 12.6605C18.7481 12.6615 18.7874 12.6176 18.7883 12.5625Z" fill="#FFEAA2"/>
<path d="M11.0456 6.43582C10.9453 6.43254 10.8618 6.52366 10.859 6.63926C10.8561 6.75492 10.9351 6.8513 11.0354 6.85453C11.1357 6.8578 11.2193 6.76668 11.222 6.65108C11.2249 6.53548 11.1459 6.43909 11.0456 6.43582Z" fill="#FFEAA2"/>
<path d="M11.0255 6.1562C11.0278 6.06491 10.9653 5.98882 10.8862 5.98627C10.807 5.98367 10.741 6.05564 10.7388 6.14687C10.7366 6.23817 10.799 6.31426 10.8781 6.31686C10.9573 6.3194 11.0232 6.24749 11.0255 6.1562Z" fill="#FFEAA2"/>
<path d="M10.4701 5.95628C10.4224 5.95475 10.3826 5.99805 10.3813 6.05311C10.3799 6.10817 10.4175 6.15402 10.4652 6.1556C10.513 6.15712 10.5527 6.11377 10.5541 6.05876C10.5555 6.00371 10.5179 5.9578 10.4701 5.95628Z" fill="#FFEAA2"/>
<path d="M18.8453 13.4822C18.7978 13.4166 18.7132 13.4077 18.6562 13.4623C18.5993 13.5171 18.5916 13.6146 18.639 13.6803C18.6864 13.746 18.771 13.7549 18.828 13.7002C18.885 13.6455 18.8927 13.5479 18.8453 13.4822Z" fill="#FFEAA2"/>
<path d="M10.3352 6.38296C10.2781 6.39794 10.2424 6.46346 10.2554 6.5292C10.2683 6.595 10.3252 6.63621 10.3822 6.62123C10.4393 6.60625 10.475 6.54073 10.462 6.47499C10.449 6.40913 10.3922 6.36798 10.3352 6.38296Z" fill="#FFEAA2"/>
<path d="M9.90438 6.622C9.93879 6.61296 9.96031 6.5735 9.95247 6.53382C9.94462 6.49413 9.91041 6.46932 9.876 6.47836C9.84158 6.48741 9.82006 6.52686 9.82791 6.56655C9.83575 6.60623 9.86997 6.63105 9.90438 6.622Z" fill="#FFEAA2"/>
<path d="M15.0119 10.4936C14.9586 10.5916 14.9843 10.7209 15.0693 10.7823C15.1543 10.8438 15.2664 10.8142 15.3197 10.7161C15.373 10.6181 15.3473 10.4888 15.2623 10.4275C15.1773 10.3659 15.0652 10.3956 15.0119 10.4936Z" fill="#FFEAA2"/>
<path d="M15.6119 10.4591C15.679 10.5076 15.7675 10.4841 15.8096 10.4068C15.8516 10.3294 15.8313 10.2273 15.7642 10.1788C15.6971 10.1303 15.6087 10.1537 15.5666 10.2311C15.5245 10.3085 15.5448 10.4105 15.6119 10.4591Z" fill="#FFEAA2"/>
<path d="M15.5087 9.58599C15.5491 9.61522 15.6025 9.60114 15.6278 9.55445C15.6532 9.50782 15.641 9.44626 15.6005 9.41703C15.5601 9.3878 15.5067 9.40188 15.4814 9.44852C15.456 9.49521 15.4682 9.55677 15.5087 9.58599Z" fill="#FFEAA2"/>
<path d="M14.2895 9.20832C14.3893 9.21991 14.4784 9.13602 14.4885 9.02093C14.4985 8.90584 14.4258 8.80312 14.326 8.79154C14.2262 8.77995 14.1371 8.86384 14.127 8.97893C14.1169 9.09408 14.1897 9.19674 14.2895 9.20832Z" fill="#FFEAA2"/>
<path d="M13.2543 10.6076C13.333 10.6168 13.4034 10.5505 13.4113 10.4597C13.4193 10.3688 13.3618 10.2877 13.283 10.2786C13.2043 10.2694 13.1339 10.3357 13.126 10.4265C13.118 10.5174 13.1755 10.5985 13.2543 10.6076Z" fill="#FFEAA2"/>
<path d="M14.5868 10.6557C14.6343 10.6613 14.6767 10.6213 14.6815 10.5665C14.6863 10.5117 14.6516 10.4628 14.6041 10.4574C14.5566 10.4518 14.5142 10.4918 14.5095 10.5466C14.5047 10.6013 14.5393 10.6502 14.5868 10.6557Z" fill="#FFEAA2"/>
<path d="M14.925 9.8228C14.9983 9.80985 15.0486 9.73088 15.0374 9.64643C15.0262 9.56192 14.9577 9.50392 14.8845 9.51681C14.8112 9.52975 14.7609 9.60872 14.7721 9.69318C14.7833 9.77774 14.8518 9.83574 14.925 9.8228Z" fill="#FFEAA2"/>
<path d="M14.7482 10.2413C14.806 10.2311 14.8457 10.1688 14.8369 10.1021C14.8281 10.0354 14.774 9.98959 14.7162 9.99977C14.6583 10.0099 14.6186 10.0723 14.6274 10.139C14.6363 10.2057 14.6903 10.2515 14.7482 10.2413Z" fill="#FFEAA2"/>
<path d="M15.1928 10.0387C15.1579 10.0449 15.134 10.0825 15.1393 10.1226C15.1446 10.1628 15.1772 10.1905 15.2121 10.1843C15.2469 10.1782 15.2709 10.1406 15.2656 10.1004C15.2602 10.0602 15.2276 10.0325 15.1928 10.0387Z" fill="#FFEAA2"/>
<path d="M11.6147 10.8308C11.5614 10.9288 11.5871 11.0581 11.6721 11.1195C11.7571 11.181 11.8692 11.1514 11.9224 11.0533C11.9757 10.9553 11.95 10.826 11.865 10.7646C11.78 10.7031 11.668 10.7328 11.6147 10.8308Z" fill="#FFEAA2"/>
<path d="M12.6044 9.10724C12.6715 9.15575 12.76 9.13234 12.802 9.05496C12.8441 8.97757 12.8238 8.87553 12.7567 8.82703C12.6896 8.77853 12.6011 8.80193 12.559 8.87932C12.517 8.95665 12.5373 9.05869 12.6044 9.10724Z" fill="#FFEAA2"/>
<path d="M12.7737 10.0335C12.8141 10.0627 12.8675 10.0487 12.8928 10.002C12.9182 9.95533 12.906 9.89376 12.8655 9.86454C12.8251 9.83531 12.7717 9.84939 12.7463 9.89603C12.721 9.94272 12.7332 10.0043 12.7737 10.0335Z" fill="#FFEAA2"/>
<path d="M10.6456 10.4667C10.7454 10.4783 10.8345 10.3944 10.8445 10.2793C10.8546 10.1642 10.7818 10.0615 10.682 10.0499C10.5822 10.0383 10.4932 10.1222 10.4831 10.2373C10.473 10.3524 10.5458 10.4551 10.6456 10.4667Z" fill="#FFEAA2"/>
<path d="M10.6482 10.7472C10.6403 10.8381 10.6977 10.9192 10.7765 10.9283C10.8553 10.9374 10.9256 10.8712 10.9335 10.7803C10.9414 10.6895 10.884 10.6084 10.8052 10.5992C10.7264 10.5901 10.6561 10.6564 10.6482 10.7472Z" fill="#FFEAA2"/>
<path d="M11.1896 10.9928C11.2371 10.9984 11.2795 10.9584 11.2843 10.9036C11.2891 10.8488 11.2544 10.7999 11.2069 10.7945C11.1594 10.7889 11.117 10.8289 11.1123 10.8837C11.1075 10.9384 11.1421 10.9873 11.1896 10.9928Z" fill="#FFEAA2"/>
<path d="M12.0612 9.61479C12.1345 9.60185 12.1848 9.52287 12.1736 9.43842C12.1624 9.35391 12.0939 9.29591 12.0207 9.3088C11.9474 9.32174 11.8971 9.40072 11.9083 9.48517C11.9195 9.56968 11.9879 9.62774 12.0612 9.61479Z" fill="#FFEAA2"/>
<path d="M11.351 10.5785C11.4088 10.5683 11.4485 10.506 11.4397 10.4393C11.4309 10.3726 11.3768 10.3268 11.319 10.337C11.2611 10.3472 11.2214 10.4095 11.2302 10.4762C11.2391 10.5429 11.2931 10.5887 11.351 10.5785Z" fill="#FFEAA2"/>
<path d="M11.7956 10.3759C11.7607 10.382 11.7367 10.4196 11.7421 10.4598C11.7474 10.5001 11.78 10.5276 11.8149 10.5215C11.8497 10.5153 11.8737 10.4777 11.8684 10.4375C11.863 10.3973 11.8304 10.3697 11.7956 10.3759Z" fill="#FFEAA2"/>
<path d="M4.70877 20.4251C4.69455 20.5396 4.76352 20.6457 4.86283 20.6621C4.96215 20.6785 5.05416 20.599 5.06837 20.4845C5.08259 20.3699 5.01362 20.2638 4.9143 20.2474C4.81499 20.2311 4.72298 20.3106 4.70877 20.4251Z" fill="#FFEAA2"/>
<path d="M5.24515 20.1128C5.32354 20.1257 5.39618 20.0629 5.40741 19.9726C5.41863 19.8822 5.36417 19.7984 5.28579 19.7854C5.20741 19.7725 5.13476 19.8353 5.12354 19.9257C5.11231 20.016 5.16677 20.0999 5.24515 20.1128Z" fill="#FFEAA2"/>
<path d="M4.84349 19.3632C4.89075 19.371 4.93457 19.3331 4.94134 19.2786C4.9481 19.2241 4.91526 19.1736 4.868 19.1658C4.82075 19.158 4.77692 19.1958 4.77016 19.2503C4.76344 19.3048 4.79624 19.3554 4.84349 19.3632Z" fill="#FFEAA2"/>
<path d="M3.5963 19.5884C3.69159 19.5522 3.74351 19.4339 3.71218 19.324C3.68086 19.2141 3.57826 19.1542 3.48292 19.1903C3.38762 19.2265 3.33571 19.3448 3.36704 19.4547C3.39836 19.5646 3.50096 19.6245 3.5963 19.5884Z" fill="#FFEAA2"/>
<path d="M3.1424 21.3516C3.21765 21.3231 3.25858 21.2297 3.23387 21.1429C3.20917 21.0561 3.12814 21.0089 3.05289 21.0374C2.97765 21.0659 2.93672 21.1593 2.96142 21.2461C2.98613 21.3328 3.06716 21.3801 3.1424 21.3516Z" fill="#FFEAA2"/>
<path d="M4.37737 20.7721C4.42272 20.7549 4.44742 20.6985 4.43252 20.6462C4.41762 20.5939 4.36875 20.5655 4.3234 20.5826C4.27806 20.5998 4.25335 20.6562 4.26826 20.7085C4.28316 20.7608 4.33203 20.7893 4.37737 20.7721Z" fill="#FFEAA2"/>
<path d="M4.39337 19.8526C4.45578 19.8066 4.47401 19.7108 4.43401 19.6388C4.39406 19.5669 4.31102 19.5458 4.24862 19.592C4.18622 19.638 4.16798 19.7338 4.20798 19.8058C4.24798 19.8777 4.33097 19.8987 4.39337 19.8526Z" fill="#FFEAA2"/>
<path d="M4.37893 20.3179C4.42819 20.2815 4.44261 20.2059 4.41104 20.1491C4.37947 20.0923 4.31393 20.0757 4.26466 20.1121C4.2154 20.1485 4.20099 20.2241 4.23256 20.2809C4.26413 20.3377 4.32966 20.3542 4.37893 20.3179Z" fill="#FFEAA2"/>
<path d="M4.71402 19.9247C4.68431 19.9466 4.67563 19.9921 4.69465 20.0264C4.71367 20.0607 4.75318 20.0707 4.78289 20.0487C4.8126 20.0268 4.82127 19.9812 4.80225 19.947C4.78328 19.9127 4.74377 19.9027 4.71402 19.9247Z" fill="#FFEAA2"/>
<path d="M1.72232 22.3227C1.7081 22.4372 1.77707 22.5433 1.87638 22.5597C1.9757 22.5761 2.06771 22.4966 2.08192 22.382C2.09614 22.2675 2.02717 22.1614 1.92785 22.145C1.82859 22.1286 1.73658 22.2082 1.72232 22.3227Z" fill="#FFEAA2"/>
<path d="M2.02054 20.2843C2.09893 20.2973 2.17157 20.2345 2.1828 20.1441C2.19402 20.0537 2.13956 19.9699 2.06118 19.957C1.9828 19.944 1.91015 20.0068 1.89893 20.0972C1.8877 20.1876 1.94216 20.2714 2.02054 20.2843Z" fill="#FFEAA2"/>
<path d="M2.50122 21.0518C2.54847 21.0596 2.5923 21.0217 2.59906 20.9672C2.60583 20.9127 2.57298 20.8622 2.52573 20.8544C2.47847 20.8465 2.43465 20.8844 2.42788 20.9389C2.42112 20.9934 2.45396 21.0439 2.50122 21.0518Z" fill="#FFEAA2"/>
<path d="M0.708483 22.4433C0.803777 22.4072 0.85564 22.2888 0.824365 22.1789C0.793042 22.069 0.690444 22.0091 0.595101 22.0453C0.499807 22.0814 0.447895 22.1997 0.479219 22.3096C0.510542 22.4195 0.613189 22.4794 0.708483 22.4433Z" fill="#FFEAA2"/>
<path d="M0.80944 22.6985C0.834146 22.7853 0.915175 22.8325 0.99042 22.804C1.06567 22.7755 1.1066 22.6821 1.08189 22.5953C1.05719 22.5085 0.976156 22.4613 0.900911 22.4898C0.825715 22.5183 0.784734 22.6117 0.80944 22.6985Z" fill="#FFEAA2"/>
<path d="M1.3908 22.6697C1.43615 22.6525 1.46085 22.5962 1.44595 22.5439C1.43105 22.4916 1.38217 22.4631 1.33683 22.4803C1.29149 22.4975 1.26678 22.5538 1.28168 22.6061C1.29659 22.6584 1.34546 22.6869 1.3908 22.6697Z" fill="#FFEAA2"/>
<path d="M1.7027 21.0023C1.7651 20.9563 1.78334 20.8605 1.74334 20.7886C1.70339 20.7166 1.62035 20.6956 1.55795 20.7417C1.49554 20.7878 1.47731 20.8835 1.51731 20.9555C1.55726 21.0274 1.6403 21.0484 1.7027 21.0023Z" fill="#FFEAA2"/>
<path d="M1.3926 22.2155C1.44187 22.1791 1.45628 22.1036 1.42471 22.0467C1.39314 21.9899 1.3276 21.9733 1.27834 22.0097C1.22907 22.0461 1.21466 22.1216 1.24623 22.1785C1.2778 22.2354 1.34334 22.2519 1.3926 22.2155Z" fill="#FFEAA2"/>
<path d="M1.72757 21.8223C1.69786 21.8442 1.68918 21.8898 1.7082 21.924C1.72722 21.9583 1.76673 21.9683 1.79644 21.9464C1.82615 21.9244 1.83482 21.8789 1.8158 21.8446C1.79678 21.8104 1.75727 21.8004 1.72757 21.8223Z" fill="#FFEAA2"/>
<path d="M10.6639 10.6073C11.2855 10.6073 11.7894 10.1979 11.7894 9.69279C11.7894 9.18771 11.2855 8.77826 10.6639 8.77826C10.0423 8.77826 9.53833 9.18771 9.53833 9.69279C9.53833 10.1979 10.0423 10.6073 10.6639 10.6073Z" fill="url(#paint8_linear)"/>
<path d="M10.5445 9.34749C10.6438 9.34749 10.7243 9.25463 10.7243 9.14008C10.7243 9.02554 10.6438 8.93268 10.5445 8.93268C10.4451 8.93268 10.3646 9.02554 10.3646 9.14008C10.3646 9.25463 10.4451 9.34749 10.5445 9.34749Z" fill="url(#paint9_linear)"/>
<path d="M10.2106 9.84011C10.289 9.84011 10.3525 9.76682 10.3525 9.6764C10.3525 9.58599 10.289 9.5127 10.2106 9.5127C10.1322 9.5127 10.0686 9.58599 10.0686 9.6764C10.0686 9.76682 10.1322 9.84011 10.2106 9.84011Z" fill="url(#paint10_linear)"/>
<path d="M10.8295 9.91243C10.8768 9.91243 10.9151 9.86824 10.9151 9.81373C10.9151 9.75922 10.8768 9.71503 10.8295 9.71503C10.7822 9.71503 10.7439 9.75922 10.7439 9.81373C10.7439 9.86824 10.7822 9.91243 10.8295 9.91243Z" fill="url(#paint11_linear)"/>
<path d="M6.00249 15.2635C6.62411 15.2635 7.12803 14.8541 7.12803 14.349C7.12803 13.8439 6.62411 13.4344 6.00249 13.4344C5.38087 13.4344 4.87695 13.8439 4.87695 14.349C4.87695 14.8541 5.38087 15.2635 6.00249 15.2635Z" fill="url(#paint12_linear)"/>
<path d="M5.88298 14.0037C5.98231 14.0037 6.06283 13.9109 6.06283 13.7963C6.06283 13.6818 5.98231 13.5889 5.88298 13.5889C5.78365 13.5889 5.70312 13.6818 5.70312 13.7963C5.70312 13.9109 5.78365 14.0037 5.88298 14.0037Z" fill="url(#paint13_linear)"/>
<path d="M5.54906 14.4964C5.62747 14.4964 5.69103 14.4231 5.69103 14.3327C5.69103 14.2422 5.62747 14.1689 5.54906 14.1689C5.47066 14.1689 5.4071 14.2422 5.4071 14.3327C5.4071 14.4231 5.47066 14.4964 5.54906 14.4964Z" fill="url(#paint14_linear)"/>
<path d="M6.16799 14.5687C6.21525 14.5687 6.25357 14.5245 6.25357 14.47C6.25357 14.4155 6.21525 14.3713 6.16799 14.3713C6.12072 14.3713 6.0824 14.4155 6.0824 14.47C6.0824 14.5245 6.12072 14.5687 6.16799 14.5687Z" fill="url(#paint15_linear)"/>
<path d="M11.8052 16.6024C12.4268 16.6024 12.9308 16.1929 12.9308 15.6878C12.9308 15.1828 12.4268 14.7733 11.8052 14.7733C11.1836 14.7733 10.6797 15.1828 10.6797 15.6878C10.6797 16.1929 11.1836 16.6024 11.8052 16.6024Z" fill="url(#paint16_linear)"/>
<path d="M11.6857 15.3425C11.785 15.3425 11.8656 15.2497 11.8656 15.1351C11.8656 15.0206 11.785 14.9277 11.6857 14.9277C11.5864 14.9277 11.5059 15.0206 11.5059 15.1351C11.5059 15.2497 11.5864 15.3425 11.6857 15.3425Z" fill="url(#paint17_linear)"/>
<path d="M11.3518 15.8351C11.4302 15.8351 11.4938 15.7618 11.4938 15.6714C11.4938 15.581 11.4302 15.5077 11.3518 15.5077C11.2734 15.5077 11.2098 15.581 11.2098 15.6714C11.2098 15.7618 11.2734 15.8351 11.3518 15.8351Z" fill="url(#paint18_linear)"/>
<path d="M11.9706 15.9075C12.0179 15.9075 12.0562 15.8633 12.0562 15.8088C12.0562 15.7543 12.0179 15.7101 11.9706 15.7101C11.9233 15.7101 11.885 15.7543 11.885 15.8088C11.885 15.8633 11.9233 15.9075 11.9706 15.9075Z" fill="url(#paint19_linear)"/>
<path d="M20.1058 13.575C20.7274 13.575 21.2313 13.1656 21.2313 12.6605C21.2313 12.1554 20.7274 11.746 20.1058 11.746C19.4841 11.746 18.9802 12.1554 18.9802 12.6605C18.9802 13.1656 19.4841 13.575 20.1058 13.575Z" fill="url(#paint20_linear)"/>
<path d="M19.9864 12.3153C20.0857 12.3153 20.1662 12.2224 20.1662 12.1079C20.1662 11.9933 20.0857 11.9005 19.9864 11.9005C19.887 11.9005 19.8065 11.9933 19.8065 12.1079C19.8065 12.2224 19.887 12.3153 19.9864 12.3153Z" fill="url(#paint21_linear)"/>
<path d="M19.6525 12.8079C19.7309 12.8079 19.7944 12.7346 19.7944 12.6442C19.7944 12.5538 19.7309 12.4805 19.6525 12.4805C19.5741 12.4805 19.5105 12.5538 19.5105 12.6442C19.5105 12.7346 19.5741 12.8079 19.6525 12.8079Z" fill="url(#paint22_linear)"/>
<path d="M20.2713 12.8802C20.3185 12.8802 20.3568 12.836 20.3568 12.7815C20.3568 12.727 20.3185 12.6828 20.2713 12.6828C20.224 12.6828 20.1857 12.727 20.1857 12.7815C20.1857 12.836 20.224 12.8802 20.2713 12.8802Z" fill="url(#paint23_linear)"/>
<path d="M10.7242 5.16871C11.3458 5.16871 11.8497 4.75927 11.8497 4.25419C11.8497 3.74911 11.3458 3.33966 10.7242 3.33966C10.1026 3.33966 9.59863 3.74911 9.59863 4.25419C9.59863 4.75927 10.1026 5.16871 10.7242 5.16871Z" fill="url(#paint24_linear)"/>
<path d="M10.6048 3.90889C10.7041 3.90889 10.7846 3.81603 10.7846 3.70148C10.7846 3.58694 10.7041 3.49408 10.6048 3.49408C10.5054 3.49408 10.4249 3.58694 10.4249 3.70148C10.4249 3.81603 10.5054 3.90889 10.6048 3.90889Z" fill="url(#paint25_linear)"/>
<path d="M10.2709 4.40151C10.3493 4.40151 10.4128 4.32822 10.4128 4.23781C10.4128 4.14739 10.3493 4.0741 10.2709 4.0741C10.1925 4.0741 10.1289 4.14739 10.1289 4.23781C10.1289 4.32822 10.1925 4.40151 10.2709 4.40151Z" fill="url(#paint26_linear)"/>
<path d="M10.8897 4.47383C10.9369 4.47383 10.9753 4.42964 10.9753 4.37513C10.9753 4.32062 10.9369 4.27643 10.8897 4.27643C10.8424 4.27643 10.8041 4.32062 10.8041 4.37513C10.8041 4.42964 10.8424 4.47383 10.8897 4.47383Z" fill="url(#paint27_linear)"/>
<path d="M12.4268 5.29508C11.3452 4.35444 9.5914 4.35444 8.50974 5.29508C7.42807 6.23573 7.42807 7.76082 8.50974 8.70147C9.5914 9.64211 11.3452 9.64211 12.4268 8.70147C13.5085 7.76082 13.5085 6.23573 12.4268 5.29508ZM9.22454 7.61068C8.53773 7.08897 8.53773 6.2429 9.22454 5.72125C9.91135 5.19955 11.0249 5.19977 11.7117 5.72148C12.3986 6.24319 12.3988 7.08903 11.712 7.61068C11.0252 8.13239 9.9113 8.13239 9.22454 7.61068Z" fill="url(#paint28_linear)"/>
<path d="M8.83916 8.17002C9.73881 8.92418 11.1979 8.92418 12.0975 8.17002C12.9974 7.41564 12.9971 6.19281 12.0975 5.43871C11.1976 4.68433 9.73906 4.68433 8.83916 5.43871C7.9395 6.19281 7.93921 7.41564 8.83916 8.17002ZM11.712 5.72124C12.3989 6.24295 12.3989 7.08902 11.712 7.61067C11.0252 8.13238 9.91166 8.13215 9.22485 7.61044C8.53803 7.08874 8.53779 6.24289 9.22455 5.72124C9.91141 5.19959 11.0252 5.19959 11.712 5.72124Z" fill="url(#paint29_linear)"/>
<path d="M1.56566 19.8333C1.97086 20.0137 2.48757 19.88 2.71983 19.5347C2.76551 19.4668 2.74527 19.3869 2.68164 19.3051C2.6113 19.2147 2.63654 19.0954 2.73311 19.0226L2.74943 19.0103C2.87419 18.9162 2.84561 18.7501 2.6938 18.6874L2.08963 18.4377C1.93782 18.375 1.75532 18.4538 1.73478 18.5909C1.71895 18.6966 1.61228 18.7785 1.4812 18.7846C1.37635 18.7895 1.29434 18.8192 1.25252 18.8813C1.02022 19.2267 1.16047 19.6529 1.56566 19.8333Z" fill="url(#paint30_linear)"/>
<path d="M5.62236 16.2164C4.69908 15.4135 3.20217 15.4135 2.27889 16.2164C1.35561 17.0192 1.35561 18.321 2.27889 19.1239C3.20217 19.9268 4.69908 19.9268 5.62236 19.1239C6.5456 18.321 6.5456 17.0192 5.62236 16.2164ZM2.88899 18.1928C2.30276 17.7476 2.30276 17.0254 2.88899 16.5801C3.47521 16.1348 4.4257 16.135 5.01192 16.5803C5.59815 17.0256 5.59839 17.7476 5.01217 18.1928C4.42599 18.6381 3.47521 18.6381 2.88899 18.1928Z" fill="url(#paint31_linear)"/>
<path d="M2.56002 18.6702C3.32791 19.3139 4.5733 19.3139 5.34119 18.6702C6.10933 18.0264 6.10908 16.9826 5.34119 16.3389C4.57306 15.695 3.32816 15.695 2.56002 16.3389C1.79213 16.9826 1.79188 18.0264 2.56002 18.6702ZM5.01222 16.5801C5.59845 17.0253 5.59845 17.7475 5.01222 18.1928C4.426 18.6381 3.47551 18.6379 2.88928 18.1926C2.30306 17.7473 2.30281 17.0253 2.88904 16.5801C3.47521 16.1348 4.426 16.1348 5.01222 16.5801Z" fill="url(#paint32_linear)"/>
<path d="M16.6541 13.3351C16.249 13.1548 15.7322 13.2884 15.5 13.6337C15.4543 13.7017 15.4745 13.7815 15.5382 13.8633C15.6085 13.9537 15.5833 14.0731 15.4867 14.1459L15.4704 14.1581C15.3456 14.2522 15.3742 14.4183 15.526 14.481L16.1302 14.7307C16.282 14.7935 16.4645 14.7147 16.485 14.5775C16.5009 14.4718 16.6075 14.39 16.7386 14.3838C16.8435 14.3789 16.9255 14.3493 16.9673 14.2871C17.1996 13.9417 17.0593 13.5155 16.6541 13.3351Z" fill="url(#paint33_linear)"/>
<path d="M15.9216 13.5277C17.1019 13.5277 18.0587 12.7503 18.0587 11.7913C18.0587 10.8323 17.1019 10.0549 15.9216 10.0549C14.7413 10.0549 13.7845 10.8323 13.7845 11.7913C13.7845 12.7503 14.7413 13.5277 15.9216 13.5277Z" fill="url(#paint34_linear)"/>
<path d="M15.6948 11.1358C15.8834 11.1358 16.0362 10.9595 16.0362 10.7421C16.0362 10.5246 15.8834 10.3483 15.6948 10.3483C15.5063 10.3483 15.3534 10.5246 15.3534 10.7421C15.3534 10.9595 15.5063 11.1358 15.6948 11.1358Z" fill="url(#paint35_linear)"/>
<path d="M15.0608 12.0711C15.2097 12.0711 15.3304 11.9319 15.3304 11.7603C15.3304 11.5886 15.2097 11.4494 15.0608 11.4494C14.9119 11.4494 14.7913 11.5886 14.7913 11.7603C14.7913 11.9319 14.9119 12.0711 15.0608 12.0711Z" fill="url(#paint36_linear)"/>
<path d="M16.2357 12.2085C16.3255 12.2085 16.3982 12.1246 16.3982 12.0211C16.3982 11.9176 16.3255 11.8337 16.2357 11.8337C16.146 11.8337 16.0732 11.9176 16.0732 12.0211C16.0732 12.1246 16.146 12.2085 16.2357 12.2085Z" fill="url(#paint37_linear)"/>
<path d="M6.90598 18.1107C8.08624 18.1107 9.04303 17.3333 9.04303 16.3743C9.04303 15.4153 8.08624 14.6379 6.90598 14.6379C5.72571 14.6379 4.76892 15.4153 4.76892 16.3743C4.76892 17.3333 5.72571 18.1107 6.90598 18.1107Z" fill="url(#paint38_linear)"/>
<path d="M6.67919 15.7187C6.86775 15.7187 7.02061 15.5424 7.02061 15.325C7.02061 15.1076 6.86775 14.9313 6.67919 14.9313C6.49063 14.9313 6.33777 15.1076 6.33777 15.325C6.33777 15.5424 6.49063 15.7187 6.67919 15.7187Z" fill="url(#paint39_linear)"/>
<path d="M6.04519 16.6541C6.19407 16.6541 6.31475 16.5149 6.31475 16.3432C6.31475 16.1715 6.19407 16.0323 6.04519 16.0323C5.89632 16.0323 5.77563 16.1715 5.77563 16.3432C5.77563 16.5149 5.89632 16.6541 6.04519 16.6541Z" fill="url(#paint40_linear)"/>
<path d="M7.22012 16.7914C7.30986 16.7914 7.38262 16.7075 7.38262 16.604C7.38262 16.5005 7.30986 16.4166 7.22012 16.4166C7.13037 16.4166 7.05762 16.5005 7.05762 16.604C7.05762 16.7075 7.13037 16.7914 7.22012 16.7914Z" fill="url(#paint41_linear)"/>
<path d="M11.4588 11.1228C11.0536 10.9424 10.5369 11.0761 10.3047 11.4214C10.259 11.4893 10.2792 11.5692 10.3429 11.6509C10.4132 11.7414 10.388 11.8607 10.2914 11.9335L10.2751 11.9458C10.1503 12.0399 10.1789 12.206 10.3307 12.2687L10.9349 12.5184C11.0867 12.5811 11.2692 12.5023 11.2897 12.3652C11.3056 12.2595 11.4122 12.1776 11.5433 12.1715C11.6481 12.1665 11.7302 12.1369 11.772 12.0747C12.0042 11.7294 11.864 11.3032 11.4588 11.1228Z" fill="url(#paint42_linear)"/>
<path d="M12.0646 16.577C12.5609 16.4817 12.9308 16.1202 12.9308 15.6878C12.9308 15.1827 12.4269 14.7733 11.8052 14.7733C11.4098 14.7733 11.0626 14.9393 10.8618 15.19L12.0646 16.577Z" fill="url(#paint43_linear)"/>
<path d="M14.1065 12.1384C13.1832 11.3355 11.6863 11.3355 10.763 12.1384C9.83974 12.9412 9.83974 14.243 10.763 15.0459C11.6863 15.8488 13.1832 15.8488 14.1065 15.0459C15.0298 14.243 15.0298 12.9412 14.1065 12.1384ZM11.3732 14.1148C10.7869 13.6696 10.7869 12.9474 11.3732 12.5021C11.9594 12.0568 12.9099 12.057 13.4961 12.5023C14.0823 12.9476 14.0826 13.6696 13.4963 14.1148C12.9101 14.5601 11.9594 14.5601 11.3732 14.1148Z" fill="url(#paint44_linear)"/>
<path d="M11.0443 14.5922C11.8122 15.2359 13.0576 15.2359 13.8254 14.5922C14.5936 13.9484 14.5933 12.9045 13.8254 12.2609C13.0573 11.617 11.8124 11.617 11.0443 12.2609C10.2764 12.9046 10.2761 13.9484 11.0443 14.5922ZM13.4964 12.5021C14.0826 12.9474 14.0826 13.6696 13.4964 14.1148C12.9102 14.5601 11.9597 14.5599 11.3735 14.1147C10.7873 13.6694 10.787 12.9474 11.3732 12.5021C11.9595 12.0568 12.9102 12.0568 13.4964 12.5021Z" fill="url(#paint45_linear)"/>
<path d="M3.73008 13.8367C3.19135 13.8367 2.75464 14.1953 2.75464 14.6379C2.75464 15.0804 3.19135 15.439 3.73008 15.439C4.2688 15.439 4.70552 15.0804 4.70552 14.6379C4.70552 14.1953 4.2688 13.8367 3.73008 13.8367ZM3.73008 14.9779C3.5014 14.9779 3.31606 14.8257 3.31606 14.6379C3.31606 14.4501 3.5014 14.2978 3.73008 14.2978C3.95876 14.2978 4.1441 14.45 4.1441 14.6379C4.14415 14.8257 3.95876 14.9779 3.73008 14.9779Z" fill="url(#paint46_linear)"/>
<path d="M8.6738 12.2752C8.13508 12.2752 7.69836 12.6339 7.69836 13.0764C7.69836 13.5189 8.13508 13.8776 8.6738 13.8776C9.21253 13.8776 9.64924 13.5189 9.64924 13.0764C9.64924 12.6339 9.21248 12.2752 8.6738 12.2752ZM8.6738 13.4164C8.44513 13.4164 8.25979 13.2642 8.25979 13.0763C8.25979 12.8885 8.44513 12.7363 8.6738 12.7363C8.90248 12.7363 9.08782 12.8885 9.08782 13.0763C9.08782 13.2642 8.90243 13.4164 8.6738 13.4164Z" fill="url(#paint47_linear)"/>
<path d="M14.9698 8.24371C14.4311 8.24371 13.9944 8.60239 13.9944 9.0449C13.9944 9.48741 14.4311 9.84609 14.9698 9.84609C15.5086 9.84609 15.9453 9.48741 15.9453 9.0449C15.9453 8.60239 15.5086 8.24371 14.9698 8.24371ZM14.9698 9.38498C14.7411 9.38498 14.5558 9.23275 14.5558 9.0449C14.5558 8.85705 14.7411 8.70482 14.9698 8.70482C15.1985 8.70482 15.3838 8.85705 15.3838 9.0449C15.3838 9.23275 15.1985 9.38498 14.9698 9.38498Z" fill="url(#paint48_linear)"/>
<path d="M1.80039 20.0612C1.26167 20.0612 0.824951 20.4198 0.824951 20.8623C0.824951 21.3049 1.26167 21.6635 1.80039 21.6635C2.33912 21.6635 2.77583 21.3049 2.77583 20.8623C2.77583 20.4198 2.33912 20.0612 1.80039 20.0612ZM1.80039 21.2024C1.57172 21.2024 1.38637 21.0501 1.38637 20.8623C1.38637 20.6745 1.57172 20.5222 1.80039 20.5222C2.02907 20.5222 2.21441 20.6744 2.21441 20.8623C2.21441 21.0501 2.02907 21.2024 1.80039 21.2024Z" fill="url(#paint49_linear)"/>
<path d="M7.13291 12.0847C8.31317 12.0847 9.26996 11.3073 9.26996 10.3483C9.26996 9.38929 8.31317 8.61188 7.13291 8.61188C5.95264 8.61188 4.99585 9.38929 4.99585 10.3483C4.99585 11.3073 5.95264 12.0847 7.13291 12.0847Z" fill="url(#paint50_linear)"/>
<path d="M6.906 9.69272C7.09456 9.69272 7.24742 9.51645 7.24742 9.299C7.24742 9.08155 7.09456 8.90527 6.906 8.90527C6.71743 8.90527 6.56458 9.08155 6.56458 9.299C6.56458 9.51645 6.71743 9.69272 6.906 9.69272Z" fill="url(#paint51_linear)"/>
<path d="M6.272 10.6281C6.42087 10.6281 6.54156 10.4889 6.54156 10.3172C6.54156 10.1455 6.42087 10.0063 6.272 10.0063C6.12313 10.0063 6.00244 10.1455 6.00244 10.3172C6.00244 10.4889 6.12313 10.6281 6.272 10.6281Z" fill="url(#paint52_linear)"/>
<path d="M7.44692 10.7654C7.53667 10.7654 7.60942 10.6815 7.60942 10.578C7.60942 10.4745 7.53667 10.3906 7.44692 10.3906C7.35718 10.3906 7.28442 10.4745 7.28442 10.578C7.28442 10.6815 7.35718 10.7654 7.44692 10.7654Z" fill="url(#paint53_linear)"/>
<path d="M14.7262 5.88165C14.321 5.70126 13.8043 5.83495 13.572 6.18023C13.5263 6.24818 13.5466 6.328 13.6102 6.4098C13.6805 6.50024 13.6553 6.61958 13.5587 6.69239L13.5424 6.70465C13.4176 6.79872 13.4462 6.9648 13.598 7.02755L14.2022 7.27724C14.354 7.33998 14.5365 7.26118 14.5571 7.12404C14.5729 7.01833 14.6796 6.93648 14.8106 6.93032C14.9155 6.9254 14.9975 6.89578 15.0393 6.8336C15.2716 6.4882 15.1314 6.06203 14.7262 5.88165Z" fill="url(#paint54_linear)"/>
<path d="M10.529 3.98243C12.3624 4.78622 14.0963 5.97938 16.3174 7.86072C18.5385 9.74207 20.2472 12.5588 21.515 14.3819C22.196 15.3612 24.0711 15.1832 24.6903 14.0674C25.1038 13.3223 25.105 11.817 24.6837 11.1278C23.4404 9.09447 21.3468 6.70578 18.7609 4.51533C16.1749 2.32489 13.6167 0.773393 11.6334 0.0737326C10.9613 -0.163407 10.2242 0.184529 9.81069 0.929639C9.19152 2.04547 9.54417 3.55066 10.529 3.98243Z" fill="url(#paint55_linear)"/>
<defs>
<linearGradient id="paint0_linear" x1="10.9487" y1="14.9803" x2="12.6087" y2="18.136" gradientUnits="userSpaceOnUse">
<stop stop-color="#FAA68E"/>
<stop offset="0.2061" stop-color="#FBA682"/>
<stop offset="0.5808" stop-color="#FDA861"/>
<stop offset="1" stop-color="#FFA936"/>
</linearGradient>
<linearGradient id="paint1_linear" x1="12.3287" y1="18.5364" x2="10.8983" y2="14.9489" gradientUnits="userSpaceOnUse">
<stop stop-color="#F82814" stop-opacity="0"/>
<stop offset="0.2454" stop-color="#F12817" stop-opacity="0.245"/>
<stop offset="0.6052" stop-color="#DD2820" stop-opacity="0.605"/>
<stop offset="1" stop-color="#C0272D"/>
</linearGradient>
<linearGradient id="paint2_linear" x1="7.11104" y1="10.5879" x2="13.9912" y2="17.733" gradientUnits="userSpaceOnUse">
<stop stop-color="#FFD945"/>
<stop offset="0.3043" stop-color="#FFCD3E"/>
<stop offset="0.8558" stop-color="#FFAD2B"/>
<stop offset="1" stop-color="#FFA325"/>
</linearGradient>
<linearGradient id="paint3_linear" x1="15.2443" y1="10.1434" x2="17.7423" y2="7.07228" gradientUnits="userSpaceOnUse">
<stop stop-color="#F82814" stop-opacity="0"/>
<stop offset="1" stop-color="#C0272D"/>
</linearGradient>
<linearGradient id="paint4_linear" x1="14.2769" y1="11.4873" x2="2.89312" y2="-3.78209" gradientUnits="userSpaceOnUse">
<stop stop-color="#F82814" stop-opacity="0"/>
<stop offset="1" stop-color="#C0272D"/>
</linearGradient>
<linearGradient id="paint5_linear" x1="9.47016" y1="12.7058" x2="4.56605" y2="4.73912" gradientUnits="userSpaceOnUse">
<stop stop-color="#F82814" stop-opacity="0"/>
<stop offset="1" stop-color="#C0272D"/>
</linearGradient>
<linearGradient id="paint6_linear" x1="15.7583" y1="15.1069" x2="10.8731" y2="7.12605" gradientUnits="userSpaceOnUse">
<stop stop-color="#F82814" stop-opacity="0"/>
<stop offset="1" stop-color="#C0272D"/>
</linearGradient>
<linearGradient id="paint7_linear" x1="7.04453" y1="19.7867" x2="3.16335" y2="14.0651" gradientUnits="userSpaceOnUse">
<stop stop-color="#F82814" stop-opacity="0"/>
<stop offset="1" stop-color="#C0272D"/>
</linearGradient>
<linearGradient id="paint8_linear" x1="10.4236" y1="9.02145" x2="11.0349" y2="10.3059" gradientUnits="userSpaceOnUse">
<stop stop-color="#BADA00"/>
<stop offset="0.2269" stop-color="#B0CE00"/>
<stop offset="0.6378" stop-color="#95AE00"/>
<stop offset="1" stop-color="#798C00"/>
</linearGradient>
<linearGradient id="paint9_linear" x1="10.6497" y1="9.49355" x2="10.0922" y2="8.7391" gradientUnits="userSpaceOnUse">
<stop stop-color="#798C00" stop-opacity="0"/>
<stop offset="0.6542" stop-color="#556100" stop-opacity="0.654"/>
<stop offset="1" stop-color="#464F00"/>
</linearGradient>
<linearGradient id="paint10_linear" x1="10.2845" y1="9.97418" x2="9.84435" y2="9.37858" gradientUnits="userSpaceOnUse">
<stop stop-color="#798C00" stop-opacity="0"/>
<stop offset="0.6542" stop-color="#556100" stop-opacity="0.654"/>
<stop offset="1" stop-color="#464F00"/>
</linearGradient>
<linearGradient id="paint11_linear" x1="10.8574" y1="10.0281" x2="10.5921" y2="9.66903" gradientUnits="userSpaceOnUse">
<stop stop-color="#798C00" stop-opacity="0"/>
<stop offset="0.6542" stop-color="#556100" stop-opacity="0.654"/>
<stop offset="1" stop-color="#464F00"/>
</linearGradient>
<linearGradient id="paint12_linear" x1="5.76225" y1="13.6776" x2="6.37351" y2="14.962" gradientUnits="userSpaceOnUse">
<stop stop-color="#BADA00"/>
<stop offset="0.2269" stop-color="#B0CE00"/>
<stop offset="0.6378" stop-color="#95AE00"/>
<stop offset="1" stop-color="#798C00"/>
</linearGradient>
<linearGradient id="paint13_linear" x1="5.9862" y1="14.1528" x2="5.4287" y2="13.3983" gradientUnits="userSpaceOnUse">
<stop stop-color="#798C00" stop-opacity="0"/>
<stop offset="0.6542" stop-color="#556100" stop-opacity="0.654"/>
<stop offset="1" stop-color="#464F00"/>
</linearGradient>
<linearGradient id="paint14_linear" x1="5.62105" y1="14.6334" x2="5.18094" y2="14.0378" gradientUnits="userSpaceOnUse">
<stop stop-color="#798C00" stop-opacity="0"/>
<stop offset="0.6542" stop-color="#556100" stop-opacity="0.654"/>
<stop offset="1" stop-color="#464F00"/>
</linearGradient>
<linearGradient id="paint15_linear" x1="6.19395" y1="14.6874" x2="5.92859" y2="14.3283" gradientUnits="userSpaceOnUse">
<stop stop-color="#798C00" stop-opacity="0"/>
<stop offset="0.6542" stop-color="#556100" stop-opacity="0.654"/>
<stop offset="1" stop-color="#464F00"/>
</linearGradient>
<linearGradient id="paint16_linear" x1="11.565" y1="15.0165" x2="12.1762" y2="16.3009" gradientUnits="userSpaceOnUse">
<stop stop-color="#BADA00"/>
<stop offset="0.2269" stop-color="#B0CE00"/>
<stop offset="0.6378" stop-color="#95AE00"/>
<stop offset="1" stop-color="#798C00"/>
</linearGradient>
<linearGradient id="paint17_linear" x1="11.792" y1="15.4916" x2="11.2345" y2="14.7371" gradientUnits="userSpaceOnUse">
<stop stop-color="#798C00" stop-opacity="0"/>
<stop offset="0.6542" stop-color="#556100" stop-opacity="0.654"/>
<stop offset="1" stop-color="#464F00"/>
</linearGradient>
<linearGradient id="paint18_linear" x1="11.4269" y1="15.9721" x2="10.9868" y2="15.3765" gradientUnits="userSpaceOnUse">
<stop stop-color="#798C00" stop-opacity="0"/>
<stop offset="0.6542" stop-color="#556100" stop-opacity="0.654"/>
<stop offset="1" stop-color="#464F00"/>
</linearGradient>
<linearGradient id="paint19_linear" x1="11.9997" y1="16.0261" x2="11.7344" y2="15.6671" gradientUnits="userSpaceOnUse">
<stop stop-color="#798C00" stop-opacity="0"/>
<stop offset="0.6542" stop-color="#556100" stop-opacity="0.654"/>
<stop offset="1" stop-color="#464F00"/>
</linearGradient>
<linearGradient id="paint20_linear" x1="19.8655" y1="11.9892" x2="20.4768" y2="13.2736" gradientUnits="userSpaceOnUse">
<stop stop-color="#BADA00"/>
<stop offset="0.2269" stop-color="#B0CE00"/>
<stop offset="0.6378" stop-color="#95AE00"/>
<stop offset="1" stop-color="#798C00"/>
</linearGradient>
<linearGradient id="paint21_linear" x1="20.0967" y1="12.4616" x2="19.5392" y2="11.7072" gradientUnits="userSpaceOnUse">
<stop stop-color="#798C00" stop-opacity="0"/>
<stop offset="0.6542" stop-color="#556100" stop-opacity="0.654"/>
<stop offset="1" stop-color="#464F00"/>
</linearGradient>
<linearGradient id="paint22_linear" x1="19.7315" y1="12.9422" x2="19.2914" y2="12.3466" gradientUnits="userSpaceOnUse">
<stop stop-color="#798C00" stop-opacity="0"/>
<stop offset="0.6542" stop-color="#556100" stop-opacity="0.654"/>
<stop offset="1" stop-color="#464F00"/>
</linearGradient>
<linearGradient id="paint23_linear" x1="20.3043" y1="12.9962" x2="20.039" y2="12.6371" gradientUnits="userSpaceOnUse">
<stop stop-color="#798C00" stop-opacity="0"/>
<stop offset="0.6542" stop-color="#556100" stop-opacity="0.654"/>
<stop offset="1" stop-color="#464F00"/>
</linearGradient>
<linearGradient id="paint24_linear" x1="10.4839" y1="3.58285" x2="11.0952" y2="4.86726" gradientUnits="userSpaceOnUse">
<stop stop-color="#BADA00"/>
<stop offset="0.2269" stop-color="#B0CE00"/>
<stop offset="0.6378" stop-color="#95AE00"/>
<stop offset="1" stop-color="#798C00"/>
</linearGradient>
<linearGradient id="paint25_linear" x1="10.7094" y1="4.05214" x2="10.1519" y2="3.29769" gradientUnits="userSpaceOnUse">
<stop stop-color="#798C00" stop-opacity="0"/>
<stop offset="0.6542" stop-color="#556100" stop-opacity="0.654"/>
<stop offset="1" stop-color="#464F00"/>
</linearGradient>
<linearGradient id="paint26_linear" x1="10.3443" y1="4.53277" x2="9.90418" y2="3.93717" gradientUnits="userSpaceOnUse">
<stop stop-color="#798C00" stop-opacity="0"/>
<stop offset="0.6542" stop-color="#556100" stop-opacity="0.654"/>
<stop offset="1" stop-color="#464F00"/>
</linearGradient>
<linearGradient id="paint27_linear" x1="10.9172" y1="4.58672" x2="10.6518" y2="4.22769" gradientUnits="userSpaceOnUse">
<stop stop-color="#798C00" stop-opacity="0"/>
<stop offset="0.6542" stop-color="#556100" stop-opacity="0.654"/>
<stop offset="1" stop-color="#464F00"/>
</linearGradient>
<linearGradient id="paint28_linear" x1="11.105" y1="4.83417" x2="9.99394" y2="7.64576" gradientUnits="userSpaceOnUse">
<stop stop-color="#FFDECF"/>
<stop offset="0.3791" stop-color="#FDC4B0"/>
<stop offset="0.7655" stop-color="#FBAE97"/>
<stop offset="1" stop-color="#FAA68E"/>
</linearGradient>
<linearGradient id="paint29_linear" x1="9.96588" y1="8.53379" x2="10.8625" y2="6.26471" gradientUnits="userSpaceOnUse">
<stop stop-color="#FFDECF"/>
<stop offset="0.3791" stop-color="#FDC4B0"/>
<stop offset="0.7655" stop-color="#FBAE97"/>
<stop offset="1" stop-color="#FAA68E"/>
</linearGradient>
<linearGradient id="paint30_linear" x1="1.84081" y1="18.833" x2="2.80651" y2="20.2008" gradientUnits="userSpaceOnUse">
<stop stop-color="#A57C52"/>
<stop offset="0.1339" stop-color="#A26C4A"/>
<stop offset="0.5155" stop-color="#994336"/>
<stop offset="0.8174" stop-color="#942A2A"/>
<stop offset="1" stop-color="#922125"/>
</linearGradient>
<linearGradient id="paint31_linear" x1="4.49448" y1="15.8201" x2="3.54617" y2="18.22" gradientUnits="userSpaceOnUse">
<stop stop-color="#FFDECF"/>
<stop offset="0.3791" stop-color="#FDC4B0"/>
<stop offset="0.7655" stop-color="#FBAE97"/>
<stop offset="1" stop-color="#FAA68E"/>
</linearGradient>
<linearGradient id="paint32_linear" x1="3.52487" y1="18.9776" x2="4.29019" y2="17.0407" gradientUnits="userSpaceOnUse">
<stop stop-color="#FFDECF"/>
<stop offset="0.3791" stop-color="#FDC4B0"/>
<stop offset="0.7655" stop-color="#FBAE97"/>
<stop offset="1" stop-color="#FAA68E"/>
</linearGradient>
<linearGradient id="paint33_linear" x1="15.9716" y1="13.5604" x2="17.2534" y2="15.4065" gradientUnits="userSpaceOnUse">
<stop stop-color="#A57C52"/>
<stop offset="0.1339" stop-color="#A26C4A"/>
<stop offset="0.5155" stop-color="#994336"/>
<stop offset="0.8174" stop-color="#942A2A"/>
<stop offset="1" stop-color="#922125"/>
</linearGradient>
<linearGradient id="paint34_linear" x1="15.4654" y1="10.5167" x2="16.6261" y2="12.9554" gradientUnits="userSpaceOnUse">
<stop stop-color="#FF6359"/>
<stop offset="0.2243" stop-color="#FE5B50"/>
<stop offset="0.5952" stop-color="#FC4637"/>
<stop offset="1" stop-color="#F82814"/>
</linearGradient>
<linearGradient id="paint35_linear" x1="15.9356" y1="11.3347" x2="14.877" y2="9.90225" gradientUnits="userSpaceOnUse">
<stop stop-color="#F82814" stop-opacity="0"/>
<stop offset="0.2454" stop-color="#F12817" stop-opacity="0.245"/>
<stop offset="0.6052" stop-color="#DD2820" stop-opacity="0.605"/>
<stop offset="1" stop-color="#C0272D"/>
</linearGradient>
<linearGradient id="paint36_linear" x1="15.2423" y1="12.2471" x2="14.4066" y2="11.1163" gradientUnits="userSpaceOnUse">
<stop stop-color="#F82814" stop-opacity="0"/>
<stop offset="0.2454" stop-color="#F12817" stop-opacity="0.245"/>
<stop offset="0.6052" stop-color="#DD2820" stop-opacity="0.605"/>
<stop offset="1" stop-color="#C0272D"/>
</linearGradient>
<linearGradient id="paint37_linear" x1="16.3299" y1="12.3497" x2="15.8261" y2="11.6679" gradientUnits="userSpaceOnUse">
<stop stop-color="#F82814" stop-opacity="0"/>
<stop offset="0.2454" stop-color="#F12817" stop-opacity="0.245"/>
<stop offset="0.6052" stop-color="#DD2820" stop-opacity="0.605"/>
<stop offset="1" stop-color="#C0272D"/>
</linearGradient>
<linearGradient id="paint38_linear" x1="6.44985" y1="15.0997" x2="7.61043" y2="17.5383" gradientUnits="userSpaceOnUse">
<stop stop-color="#FF6359"/>
<stop offset="0.2243" stop-color="#FE5B50"/>
<stop offset="0.5952" stop-color="#FC4637"/>
<stop offset="1" stop-color="#F82814"/>
</linearGradient>
<linearGradient id="paint39_linear" x1="6.91582" y1="15.9211" x2="5.85729" y2="14.4887" gradientUnits="userSpaceOnUse">
<stop stop-color="#F82814" stop-opacity="0"/>
<stop offset="0.2454" stop-color="#F12817" stop-opacity="0.245"/>
<stop offset="0.6052" stop-color="#DD2820" stop-opacity="0.605"/>
<stop offset="1" stop-color="#C0272D"/>
</linearGradient>
<linearGradient id="paint40_linear" x1="6.22244" y1="16.8336" x2="5.38679" y2="15.7028" gradientUnits="userSpaceOnUse">
<stop stop-color="#F82814" stop-opacity="0"/>
<stop offset="0.2454" stop-color="#F12817" stop-opacity="0.245"/>
<stop offset="0.6052" stop-color="#DD2820" stop-opacity="0.605"/>
<stop offset="1" stop-color="#C0272D"/>
</linearGradient>
<linearGradient id="paint41_linear" x1="7.31007" y1="16.9361" x2="6.80625" y2="16.2543" gradientUnits="userSpaceOnUse">
<stop stop-color="#F82814" stop-opacity="0"/>
<stop offset="0.2454" stop-color="#F12817" stop-opacity="0.245"/>
<stop offset="0.6052" stop-color="#DD2820" stop-opacity="0.605"/>
<stop offset="1" stop-color="#C0272D"/>
</linearGradient>
<linearGradient id="paint42_linear" x1="10.7762" y1="11.3481" x2="12.0581" y2="13.1941" gradientUnits="userSpaceOnUse">
<stop stop-color="#A57C52"/>
<stop offset="0.1339" stop-color="#A26C4A"/>
<stop offset="0.5155" stop-color="#994336"/>
<stop offset="0.8174" stop-color="#942A2A"/>
<stop offset="1" stop-color="#922125"/>
</linearGradient>
<linearGradient id="paint43_linear" x1="12.6597" y1="17.0206" x2="10.0633" y2="12.7638" gradientUnits="userSpaceOnUse">
<stop stop-color="#798C00" stop-opacity="0"/>
<stop offset="0.6542" stop-color="#556100" stop-opacity="0.654"/>
<stop offset="1" stop-color="#464F00"/>
</linearGradient>
<linearGradient id="paint44_linear" x1="12.9773" y1="11.7427" x2="12.029" y2="14.1426" gradientUnits="userSpaceOnUse">
<stop stop-color="#FFDECF"/>
<stop offset="0.3791" stop-color="#FDC4B0"/>
<stop offset="0.7655" stop-color="#FBAE97"/>
<stop offset="1" stop-color="#FAA68E"/>
</linearGradient>
<linearGradient id="paint45_linear" x1="12.0078" y1="14.9001" x2="12.7731" y2="12.9634" gradientUnits="userSpaceOnUse">
<stop stop-color="#FFDECF"/>
<stop offset="0.3791" stop-color="#FDC4B0"/>
<stop offset="0.7655" stop-color="#FBAE97"/>
<stop offset="1" stop-color="#FAA68E"/>
</linearGradient>
<linearGradient id="paint46_linear" x1="3.33415" y1="13.7247" x2="3.89769" y2="14.702" gradientUnits="userSpaceOnUse">
<stop stop-color="#8A7889"/>
<stop offset="0.3344" stop-color="#867385"/>
<stop offset="0.7039" stop-color="#7B667B"/>
<stop offset="1" stop-color="#6E566E"/>
</linearGradient>
<linearGradient id="paint47_linear" x1="8.27787" y1="12.1632" x2="8.84141" y2="13.1406" gradientUnits="userSpaceOnUse">
<stop stop-color="#8A7889"/>
<stop offset="0.3344" stop-color="#867385"/>
<stop offset="0.7039" stop-color="#7B667B"/>
<stop offset="1" stop-color="#6E566E"/>
</linearGradient>
<linearGradient id="paint48_linear" x1="14.5739" y1="8.13173" x2="15.1374" y2="9.10908" gradientUnits="userSpaceOnUse">
<stop stop-color="#8A7889"/>
<stop offset="0.3344" stop-color="#867385"/>
<stop offset="0.7039" stop-color="#7B667B"/>
<stop offset="1" stop-color="#6E566E"/>
</linearGradient>
<linearGradient id="paint49_linear" x1="1.40446" y1="19.9492" x2="1.968" y2="20.9265" gradientUnits="userSpaceOnUse">
<stop stop-color="#8A7889"/>
<stop offset="0.3344" stop-color="#867385"/>
<stop offset="0.7039" stop-color="#7B667B"/>
<stop offset="1" stop-color="#6E566E"/>
</linearGradient>
<linearGradient id="paint50_linear" x1="6.67678" y1="9.07366" x2="7.83736" y2="11.5123" gradientUnits="userSpaceOnUse">
<stop stop-color="#FF6359"/>
<stop offset="0.2243" stop-color="#FE5B50"/>
<stop offset="0.5952" stop-color="#FC4637"/>
<stop offset="1" stop-color="#F82814"/>
</linearGradient>
<linearGradient id="paint51_linear" x1="7.14216" y1="9.89203" x2="6.08362" y2="8.45953" gradientUnits="userSpaceOnUse">
<stop stop-color="#F82814" stop-opacity="0"/>
<stop offset="0.2454" stop-color="#F12817" stop-opacity="0.245"/>
<stop offset="0.6052" stop-color="#DD2820" stop-opacity="0.605"/>
<stop offset="1" stop-color="#C0272D"/>
</linearGradient>
<linearGradient id="paint52_linear" x1="6.44882" y1="10.8045" x2="5.61317" y2="9.67367" gradientUnits="userSpaceOnUse">
<stop stop-color="#F82814" stop-opacity="0"/>
<stop offset="0.2454" stop-color="#F12817" stop-opacity="0.245"/>
<stop offset="0.6052" stop-color="#DD2820" stop-opacity="0.605"/>
<stop offset="1" stop-color="#C0272D"/>
</linearGradient>
<linearGradient id="paint53_linear" x1="7.53641" y1="10.907" x2="7.03263" y2="10.2252" gradientUnits="userSpaceOnUse">
<stop stop-color="#F82814" stop-opacity="0"/>
<stop offset="0.2454" stop-color="#F12817" stop-opacity="0.245"/>
<stop offset="0.6052" stop-color="#DD2820" stop-opacity="0.605"/>
<stop offset="1" stop-color="#C0272D"/>
</linearGradient>
<linearGradient id="paint54_linear" x1="14.0435" y1="6.10686" x2="15.3254" y2="7.9529" gradientUnits="userSpaceOnUse">
<stop stop-color="#A57C52"/>
<stop offset="0.1339" stop-color="#A26C4A"/>
<stop offset="0.5155" stop-color="#994336"/>
<stop offset="0.8174" stop-color="#942A2A"/>
<stop offset="1" stop-color="#922125"/>
</linearGradient>
<linearGradient id="paint55_linear" x1="18.2746" y1="5.5679" x2="16.0425" y2="8.73184" gradientUnits="userSpaceOnUse">
<stop stop-color="#FAA68E"/>
<stop offset="0.2061" stop-color="#FBA682"/>
<stop offset="0.5808" stop-color="#FDA861"/>
<stop offset="1" stop-color="#FFA936"/>
</linearGradient>
</defs>
</svg>
