<svg width="15" height="15" viewBox="0 0 15 15" fill="none" xmlns="http://www.w3.org/2000/svg">
<g clip-path="url(#clip0)">
<path d="M14.961 5.75392C14.8628 5.45019 14.5934 5.23446 14.2747 5.20574L9.94529 4.81262L8.23333 0.8056C8.10709 0.511937 7.81961 0.321846 7.5002 0.321846C7.18079 0.321846 6.8933 0.511937 6.76707 0.806287L5.05511 4.81262L0.725008 5.20574C0.406854 5.23515 0.138139 5.45019 0.0393744 5.75392C-0.0593906 6.05766 0.0318211 6.3908 0.272497 6.60081L3.54502 9.47083L2.58003 13.7216C2.50942 14.0342 2.63073 14.3572 2.89006 14.5447C3.02945 14.6454 3.19253 14.6967 3.35699 14.6967C3.49878 14.6967 3.63944 14.6585 3.76567 14.5829L7.5002 12.3509L11.2334 14.5829C11.5065 14.7473 11.8509 14.7323 12.1097 14.5447C12.3691 14.3567 12.4903 14.0335 12.4197 13.7216L11.4547 9.47083L14.7272 6.60138C14.9679 6.3908 15.0598 6.05823 14.961 5.75392Z" fill="#FFC107"/>
</g>
<defs>
<clipPath id="clip0">
<rect width="15" height="15" fill="white"/>
</clipPath>
</defs>
</svg>
